<svg version="1.1" id="Capa_1" xmlns="http://www.w3.org/2000/svg" xmlns:xlink="http://www.w3.org/1999/xlink" x="0px" y="0px" viewBox="0 0 260 300" style="enable-background:new 0 0 260 300;" xml:space="preserve">
	
	<defs>
		<style type="text/css">
			
			.let {
				animation: let 3s infinite cubic-bezier(0.68, -0.55, 0.265, 1.55); 
			}
			
			@keyframes let {
				0% 	{
					transform: translateY(-20px);
					opacity: 0;
				}
				
				15%	{

					transform: translateY(0px);
					opacity: 1;
				}
			}
			
			.console {
				animation: console 3s infinite cubic-bezier(0.68, -0.55, 0.265, 1.55);
			}
			
			@keyframes console {
				0%, 15% 	{
					transform: translateY(-20px);
					opacity: 0;
				}
				
				30%	{

					transform: translateY(0px);
					opacity: 1;
				}
			}
			
			.output	{
				animation: output 3s infinite cubic-bezier(0.68, -0.55, 0.265, 1.55);
			}
			
			@keyframes output {
				0%, 40% 	{
					transform: translateX(-40px);
					opacity: 0;
				}
				
				60%	{

					transform: translateX(0px);
					opacity: 1;
				}
			}

			.st0{fill:#131619;}
			.st2{fill:#4FC19B;}
			.st3{fill:#F143D4;}
			.st4{fill:#F6BD60;}
			.st5{fill:#FF526B;}
			.st7{fill:#4392F1;}

</style>
	</defs>

<g>
	<g>
		<path class="st0" d="M24.999,298.5c-12.958,0-23.5-10.543-23.5-23.5V25c0-12.958,10.542-23.5,23.5-23.5H235
			c12.958,0,23.5,10.542,23.5,23.5v250c0,12.957-10.542,23.5-23.5,23.5H24.999z"/>
		<g>
			<path class="st7" d="M235,3c12.131,0,22,9.869,22,22v250c0,12.131-9.869,22-22,22H24.999c-12.131,0-22-9.869-22-22V25
				c0-12.131,9.869-22,22-22H235 M235,0H24.999c-13.75,0-25,11.25-25,25v250c0,13.75,11.25,25,25,25H235c13.75,0,25-11.25,25-25V25
				C260,11.25,248.75,0,235,0L235,0z"/>
		</g>
	</g>
	<g>
		<g>
			<path id="Trazado_2084" class="st5" d="M28.971,84.019l-3.09-2.171l3.09-2.17l-0.423-1.969l-5.06,3.606v1.067l5.06,3.625
				L28.971,84.019z M29.835,85.656c0.446,0.325,0.953,0.556,1.49,0.681c0.521,0.146,1.059,0.226,1.6,0.239
				c0.975,0.063,1.944-0.191,2.759-0.727c0.642-0.49,0.999-1.265,0.958-2.07c0.004-0.702-0.314-1.367-0.865-1.803
				c-0.646-0.53-1.381-0.941-2.171-1.214c-0.356-0.119-0.704-0.263-1.039-0.432c-0.239-0.129-0.359-0.273-0.359-0.433
				c0.006-0.219,0.12-0.422,0.304-0.542c0.222-0.159,0.491-0.24,0.764-0.23c0.382-0.001,0.762,0.048,1.132,0.147
				c0.424,0.122,0.839,0.275,1.242,0.46l0.717-1.601c-0.469-0.306-0.985-0.536-1.527-0.681c-0.494-0.154-1.008-0.241-1.526-0.257
				c-0.904-0.048-1.798,0.208-2.539,0.727c-0.62,0.472-0.97,1.217-0.938,1.996c-0.006,0.663,0.31,1.287,0.846,1.674
				c0.638,0.48,1.354,0.847,2.116,1.086c1.042,0.319,1.563,0.717,1.563,1.195c0,0.246-0.152,0.436-0.46,0.571
				c-0.319,0.137-0.664,0.207-1.012,0.203c-0.812-0.041-1.607-0.247-2.336-0.607L29.835,85.656z M45.399,78.131
				c-0.475-0.308-0.997-0.538-1.545-0.681c-0.501-0.154-1.021-0.24-1.545-0.257c-0.873-0.02-1.736,0.179-2.512,0.58
				c-0.703,0.372-1.279,0.945-1.656,1.646c-0.399,0.766-0.598,1.62-0.579,2.484c-0.02,0.86,0.18,1.712,0.579,2.474
				c0.377,0.696,0.954,1.263,1.656,1.628c0.777,0.394,1.641,0.59,2.512,0.57c0.541-0.013,1.078-0.093,1.6-0.239
				c0.538-0.125,1.044-0.356,1.49-0.681l-0.681-1.729c-0.404,0.186-0.823,0.34-1.25,0.46c-0.372,0.099-0.756,0.148-1.141,0.147
				c-0.634,0.018-1.243-0.253-1.656-0.735c-0.442-0.53-0.672-1.206-0.644-1.895c-0.027-0.697,0.207-1.378,0.653-1.914
				c0.405-0.489,1.011-0.767,1.646-0.754c0.385-0.001,0.769,0.048,1.141,0.147c0.427,0.121,0.846,0.274,1.25,0.46L45.399,78.131z
				 M49.189,80.91c0.503-0.446,1.063-0.823,1.665-1.123c0.461-0.256,0.974-0.407,1.5-0.441l-0.479-1.914
				c-0.538,0.028-1.063,0.186-1.527,0.46c-0.542,0.283-1.048,0.629-1.508,1.03l-0.792-1.49h-1.251v8.923h2.392V80.91z
				 M54.728,76.163c0.361,0.007,0.709-0.132,0.965-0.386c0.26-0.25,0.404-0.597,0.396-0.957c0.008-0.36-0.136-0.707-0.396-0.957
				c-0.255-0.255-0.604-0.394-0.965-0.386c-0.353-0.006-0.693,0.133-0.939,0.386c-0.256,0.252-0.395,0.598-0.386,0.957
				c-0.009,0.358,0.13,0.705,0.386,0.957C54.035,76.03,54.375,76.169,54.728,76.163z M55.941,86.355v-8.923h-2.392v8.923H55.941z
				 M62.122,77.193c1.224-0.064,2.417,0.395,3.284,1.26c0.838,0.933,1.272,2.161,1.206,3.413c0.017,0.853-0.169,1.698-0.542,2.465
				c-0.349,0.697-0.896,1.273-1.574,1.656c-0.749,0.408-1.594,0.611-2.447,0.589c-0.559-0.015-1.106-0.16-1.601-0.424V90.2
				l-2.373,0.184V77.432h1.214l0.479,0.607C60.433,77.497,61.264,77.198,62.122,77.193z M62.031,84.534
				c0.606,0.021,1.185-0.257,1.545-0.745c0.4-0.559,0.6-1.236,0.57-1.922c0.032-0.68-0.165-1.351-0.562-1.904
				c-0.368-0.481-0.948-0.753-1.554-0.727c-0.569,0.017-1.12,0.203-1.583,0.533v4.25C60.911,84.349,61.463,84.529,62.031,84.534z
				 M70.825,77.451v-2.539l-2.374,0.423v2.116h-1.196v1.84h1.196v4.213c-0.052,0.891,0.291,1.758,0.938,2.374
				c0.733,0.601,1.666,0.903,2.612,0.846c0.334-0.006,0.667-0.063,0.984-0.166c0.294-0.078,0.571-0.209,0.818-0.387l-0.699-1.729
				c-0.303,0.152-0.636,0.234-0.975,0.239c-0.375,0.02-0.736-0.146-0.967-0.441c-0.24-0.337-0.359-0.746-0.339-1.159v-3.79h2.354
				l-0.736-1.84H70.825z M79.931,81.314l-5.059-3.606l-0.423,1.969l3.09,2.17l-3.09,2.171l0.423,1.987l5.059-3.625V81.314z"/>
		</g>
		<g>
			<path id="Trazado_2085" class="st5" d="M28.971,220.158l-3.09-2.17l3.09-2.172l-0.423-1.969l-5.06,3.605v1.068l5.06,3.623
				L28.971,220.158z M35.005,209.432l-5.482,13.063l2.483,0.074l5.5-13.063L35.005,209.432z M38.188,221.797
				c0.445,0.324,0.952,0.555,1.49,0.68c0.522,0.146,1.059,0.227,1.6,0.24c0.975,0.063,1.944-0.193,2.76-0.729
				c0.642-0.488,0.999-1.264,0.958-2.07c0.003-0.699-0.314-1.367-0.865-1.801c-0.646-0.531-1.38-0.941-2.171-1.215
				c-0.356-0.119-0.705-0.262-1.04-0.434c-0.239-0.127-0.358-0.273-0.358-0.432c0.005-0.221,0.12-0.424,0.304-0.541
				c0.221-0.16,0.491-0.242,0.764-0.23c0.382-0.002,0.762,0.047,1.131,0.145c0.425,0.123,0.84,0.277,1.242,0.461l0.717-1.6
				c-0.47-0.307-0.984-0.537-1.527-0.68c-0.494-0.154-1.008-0.244-1.527-0.26c-0.903-0.049-1.796,0.209-2.539,0.729
				c-0.62,0.473-0.97,1.215-0.938,1.996c-0.006,0.662,0.309,1.285,0.846,1.674c0.638,0.48,1.354,0.846,2.115,1.086
				c1.043,0.316,1.564,0.717,1.564,1.193c0,0.246-0.153,0.438-0.46,0.572c-0.32,0.137-0.665,0.207-1.011,0.203
				c-0.812-0.041-1.608-0.248-2.337-0.607L38.188,221.797z M53.752,214.271c-0.475-0.309-0.997-0.539-1.545-0.68
				c-0.501-0.154-1.021-0.242-1.545-0.26c-0.873-0.02-1.736,0.18-2.512,0.58c-0.703,0.373-1.279,0.945-1.656,1.646
				c-0.399,0.768-0.598,1.621-0.579,2.484c-0.021,0.861,0.179,1.713,0.579,2.475c0.377,0.695,0.954,1.262,1.656,1.627
				c0.777,0.395,1.641,0.592,2.512,0.572c0.541-0.014,1.078-0.094,1.6-0.24c0.538-0.125,1.044-0.355,1.49-0.68l-0.681-1.73
				c-0.404,0.186-0.823,0.34-1.25,0.459c-0.372,0.1-0.756,0.15-1.141,0.148c-0.635,0.018-1.243-0.254-1.657-0.734
				c-0.442-0.531-0.672-1.207-0.643-1.896c-0.027-0.697,0.207-1.377,0.653-1.914c0.405-0.488,1.011-0.766,1.646-0.754
				c0.384-0.002,0.769,0.049,1.141,0.146c0.428,0.121,0.846,0.273,1.25,0.461L53.752,214.271z M57.542,217.049
				c0.503-0.445,1.063-0.822,1.665-1.123c0.46-0.256,0.974-0.406,1.5-0.441l-0.479-1.912c-0.538,0.027-1.063,0.186-1.527,0.459
				c-0.542,0.283-1.048,0.629-1.508,1.031l-0.792-1.49h-1.251v8.922h2.393V217.049z M63.08,212.303
				c0.361,0.008,0.709-0.131,0.964-0.387c0.261-0.25,0.404-0.596,0.396-0.957c0.008-0.359-0.136-0.705-0.396-0.955
				c-0.255-0.256-0.604-0.395-0.964-0.387c-0.353-0.008-0.693,0.133-0.939,0.387c-0.256,0.25-0.395,0.598-0.386,0.955
				c-0.009,0.359,0.13,0.707,0.386,0.957C62.387,212.17,62.727,212.309,63.08,212.303z M64.293,222.494v-8.922h-2.392v8.922H64.293z
				 M70.475,213.332c1.224-0.063,2.417,0.396,3.284,1.262c0.838,0.932,1.272,2.16,1.206,3.412c0.017,0.854-0.169,1.699-0.542,2.465
				c-0.349,0.697-0.896,1.273-1.574,1.656c-0.75,0.408-1.594,0.611-2.447,0.59c-0.559-0.016-1.106-0.16-1.601-0.424v4.047
				l-2.374,0.184v-12.951h1.215l0.479,0.605C68.785,213.637,69.616,213.338,70.475,213.332z M70.383,220.674
				c0.606,0.021,1.184-0.258,1.545-0.746c0.4-0.559,0.6-1.236,0.57-1.922c0.032-0.68-0.165-1.35-0.562-1.904
				c-0.368-0.482-0.949-0.754-1.554-0.727c-0.569,0.018-1.12,0.203-1.583,0.533v4.25C69.263,220.488,69.815,220.668,70.383,220.674z
				 M79.177,213.592v-2.539l-2.373,0.422v2.117h-1.197v1.84h1.197v4.213c-0.052,0.889,0.291,1.756,0.938,2.373
				c0.733,0.6,1.665,0.902,2.612,0.846c0.334-0.008,0.667-0.063,0.985-0.166c0.294-0.078,0.571-0.209,0.818-0.387l-0.699-1.729
				c-0.303,0.152-0.636,0.232-0.975,0.238c-0.375,0.02-0.735-0.145-0.966-0.441c-0.24-0.336-0.359-0.746-0.34-1.158v-3.789h2.354
				l-0.735-1.84H79.177z M88.284,217.453l-5.06-3.605l-0.423,1.969l3.09,2.172l-3.09,2.17l0.423,1.986l5.06-3.623V217.453z"/>
		</g>
		<g>
			<g class="output">
				<path id="Trazado_1929" class="st7" d="M31.252,172.264h-8.224l0.202,1.783h8.187L31.252,172.264z M31.252,176.107h-8.224
					l0.202,1.768h8.187L31.252,176.107z"/>
				<path id="Trazado_1930" class="st7" d="M37.525,174.729l-5.059-3.605l-0.423,1.969l3.091,2.17l-3.091,2.17l0.423,1.988
					l5.059-3.625V174.729z"/>
				<path id="Trazado_1931" class="st2" d="M42.787,166.121c-0.365-0.004-0.71,0.154-0.948,0.432
					c-0.247,0.248-0.388,0.58-0.395,0.928c0.004,0.33,0.128,0.648,0.349,0.893c0.155,0.232,0.404,0.383,0.681,0.414
					c-0.056,0.314-0.185,0.611-0.377,0.865c-0.262,0.305-0.548,0.586-0.855,0.846l0.515,1.123c0.716-0.41,1.314-0.996,1.738-1.703
					c0.429-0.641,0.668-1.391,0.69-2.16c0.018-0.43-0.127-0.85-0.404-1.178C43.536,166.285,43.171,166.115,42.787,166.121z
					 M46.209,166.121c-0.366-0.002-0.715,0.156-0.957,0.432c-0.251,0.244-0.397,0.578-0.404,0.928
					c0.004,0.328,0.124,0.645,0.34,0.893c0.156,0.236,0.41,0.389,0.69,0.414c-0.054,0.313-0.184,0.605-0.377,0.855
					c-0.27,0.307-0.562,0.59-0.873,0.855l0.534,1.123c0.708-0.414,1.299-1,1.719-1.703c0.429-0.641,0.668-1.391,0.69-2.16
					c0.018-0.428-0.122-0.848-0.396-1.178C46.94,166.287,46.584,166.117,46.209,166.121z"/>
				<path id="Trazado_1935" class="st2" d="M77.705,173.404c0.402-0.18,0.821-0.318,1.251-0.414
					c0.438-0.111,0.889-0.168,1.342-0.176c0.385-0.021,0.76,0.115,1.041,0.379c0.266,0.287,0.408,0.666,0.395,1.057h-1.748
					c-0.883-0.047-1.755,0.219-2.465,0.746c-0.623,0.516-0.964,1.297-0.92,2.105c-0.038,0.785,0.255,1.549,0.811,2.107
					c0.668,0.566,1.534,0.846,2.409,0.781c0.916-0.045,1.77-0.473,2.355-1.178l0.404,0.957h1.564V173.9
					c0.006-0.605-0.177-1.197-0.523-1.693c-0.357-0.508-0.844-0.914-1.409-1.176c-0.609-0.287-1.275-0.432-1.949-0.424
					c-0.566,0.021-1.127,0.104-1.674,0.25c-0.536,0.102-1.051,0.293-1.527,0.561L77.705,173.404z M78.644,177.102
					c-0.005-0.33,0.124-0.65,0.358-0.883c0.25-0.25,0.594-0.383,0.948-0.367h1.802v1.359c-0.509,0.551-1.22,0.869-1.968,0.885
					c-0.301,0.01-0.594-0.096-0.818-0.295C78.761,177.627,78.644,177.371,78.644,177.102z"/>
				<path id="Trazado_1934" class="st2" d="M74.798,179.77v-12.988l-2.374,0.203v12.785H74.798z"/>
				<path id="Trazado_1933" class="st2" d="M71.1,175.279c0.02,0.865-0.184,1.721-0.588,2.486c-0.382,0.697-0.961,1.271-1.665,1.645
					c-0.776,0.4-1.639,0.6-2.512,0.58c-0.872,0.02-1.734-0.176-2.511-0.57c-0.704-0.367-1.284-0.934-1.665-1.629
					c-0.406-0.76-0.609-1.613-0.589-2.473c-0.02-0.865,0.183-1.721,0.589-2.484c0.381-0.699,0.959-1.273,1.665-1.646
					c0.775-0.4,1.638-0.6,2.511-0.58c0.871-0.02,1.733,0.176,2.512,0.57c0.703,0.367,1.283,0.934,1.665,1.629
					C70.917,173.566,71.121,174.42,71.1,175.279z M66.335,177.947c0.636,0.014,1.241-0.266,1.647-0.754
					c0.445-0.535,0.679-1.217,0.652-1.914c0.029-0.689-0.201-1.365-0.643-1.893c-0.413-0.484-1.021-0.754-1.656-0.736
					c-0.634-0.014-1.242,0.266-1.646,0.754c-0.447,0.535-0.68,1.217-0.654,1.914c-0.029,0.689,0.201,1.365,0.644,1.893
					C65.092,177.695,65.701,177.967,66.335,177.947z"/>
				<path id="Trazado_1932" class="st2" d="M59.474,179.77v-12.51h-2.374v5.299h-4.932v-5.391l-2.373,0.092v12.51h2.373v-5.299
					h4.932v5.299H59.474z"/>
				<path id="Trazado_1942" class="st2" d="M153.171,166.121c-0.365-0.004-0.712,0.154-0.949,0.432
					c-0.246,0.248-0.388,0.58-0.395,0.928c0.003,0.33,0.129,0.648,0.351,0.893c0.154,0.232,0.402,0.383,0.679,0.414
					c-0.054,0.314-0.184,0.611-0.376,0.865c-0.262,0.305-0.548,0.586-0.856,0.846l0.516,1.123c0.717-0.41,1.315-0.996,1.739-1.703
					c0.428-0.641,0.666-1.391,0.689-2.16c0.017-0.43-0.127-0.85-0.404-1.178C153.918,166.285,153.554,166.115,153.171,166.121z
					 M156.592,166.121c-0.367-0.002-0.715,0.156-0.956,0.432c-0.252,0.244-0.397,0.578-0.406,0.928
					c0.004,0.328,0.126,0.645,0.342,0.893c0.154,0.236,0.409,0.389,0.689,0.414c-0.054,0.313-0.183,0.605-0.377,0.855
					c-0.27,0.307-0.563,0.59-0.873,0.855l0.533,1.123c0.706-0.414,1.299-1,1.72-1.703c0.429-0.641,0.668-1.391,0.689-2.16
					c0.019-0.428-0.124-0.848-0.396-1.178C157.323,166.287,156.967,166.117,156.592,166.121z"/>
				<path id="Trazado_1941" class="st2" d="M148.534,175.279l1.913,0.885l0.276-9.309h-2.503L148.534,175.279z M149.472,177.084
					c-0.354-0.006-0.697,0.135-0.947,0.387c-0.26,0.25-0.404,0.596-0.395,0.955c-0.01,0.361,0.135,0.709,0.395,0.957
					c0.25,0.252,0.593,0.393,0.947,0.387c0.361,0.008,0.71-0.133,0.967-0.387c0.26-0.248,0.402-0.596,0.395-0.957
					c0.008-0.359-0.135-0.705-0.395-0.955C150.182,177.215,149.833,177.076,149.472,177.084z"/>
				<path id="Trazado_1940" class="st2" d="M146.528,175.279c0.021,0.865-0.183,1.721-0.589,2.486
					c-0.381,0.697-0.959,1.271-1.664,1.645c-0.775,0.4-1.64,0.6-2.512,0.58c-0.871,0.02-1.733-0.176-2.511-0.57
					c-0.705-0.367-1.283-0.934-1.666-1.629c-0.406-0.76-0.609-1.613-0.588-2.473c-0.02-0.865,0.184-1.721,0.588-2.484
					c0.383-0.699,0.961-1.273,1.666-1.646c0.775-0.4,1.638-0.6,2.511-0.58c0.872-0.02,1.734,0.176,2.512,0.57
					c0.703,0.367,1.283,0.934,1.664,1.629C146.346,173.566,146.549,174.42,146.528,175.279z M141.764,177.947
					c0.635,0.014,1.242-0.266,1.646-0.754c0.447-0.535,0.679-1.217,0.653-1.914c0.029-0.689-0.201-1.365-0.645-1.893
					c-0.411-0.484-1.021-0.754-1.655-0.736c-0.636-0.014-1.241,0.266-1.647,0.754c-0.445,0.535-0.679,1.217-0.651,1.914
					c-0.029,0.689,0.201,1.365,0.643,1.893C140.521,177.695,141.128,177.967,141.764,177.947z"/>
				<path id="Trazado_1939" class="st2" d="M135.747,166.781v12.988h-1.25l-0.552-0.811c-0.701,0.654-1.619,1.021-2.576,1.031
					c-1.224,0.063-2.417-0.395-3.282-1.26c-0.84-0.934-1.272-2.16-1.206-3.412c-0.018-0.854,0.169-1.699,0.543-2.465
					c0.347-0.697,0.895-1.275,1.571-1.656c0.751-0.408,1.593-0.611,2.447-0.59c0.32,0.006,0.636,0.057,0.938,0.156
					c0.336,0.105,0.655,0.252,0.957,0.434v-4.213L135.747,166.781z M129.346,175.318c-0.032,0.678,0.165,1.35,0.56,1.904
					c0.368,0.48,0.949,0.752,1.555,0.725c0.319,0,0.634-0.063,0.929-0.182c0.338-0.145,0.655-0.332,0.948-0.555v-3.807
					c-0.273-0.242-0.584-0.438-0.92-0.58c-0.306-0.119-0.631-0.178-0.957-0.174c-0.605-0.021-1.185,0.256-1.546,0.744
					C129.517,173.955,129.316,174.631,129.346,175.318z"/>
				<path id="Trazado_1938" class="st2" d="M119.706,173.588c0.386-0.283,0.792-0.539,1.214-0.764
					c0.363-0.189,0.767-0.285,1.177-0.283c0.374-0.018,0.729,0.156,0.949,0.459c0.248,0.381,0.366,0.832,0.339,1.287v5.482h2.391
					v-5.592c0.056-0.939-0.183-1.871-0.679-2.668c-0.583-0.695-1.474-1.055-2.374-0.957c-0.573,0.016-1.139,0.129-1.674,0.33
					c-0.629,0.225-1.224,0.533-1.766,0.92l-0.406-0.957h-1.563v8.924h2.392V173.588z"/>
				<path id="Trazado_1937" class="st2" d="M112.274,177.027c-0.386,0.285-0.792,0.539-1.215,0.764
					c-0.364,0.189-0.768,0.289-1.178,0.287c-0.373,0.014-0.729-0.158-0.947-0.461c-0.248-0.383-0.368-0.834-0.34-1.287v-5.484
					h-2.392v5.594c-0.054,0.939,0.183,1.869,0.681,2.668c0.582,0.695,1.473,1.055,2.374,0.957c0.573-0.016,1.139-0.127,1.674-0.332
					c0.629-0.223,1.224-0.531,1.766-0.92l0.404,0.957h1.565v-8.924h-2.392V177.027z"/>
				<path id="Trazado_1936" class="st2" d="M101.548,170.553c0.82-0.078,1.63,0.223,2.198,0.818
					c0.498,0.711,0.735,1.572,0.672,2.438v5.961h-2.391v-5.482c0.027-0.451-0.065-0.902-0.268-1.307
					c-0.174-0.293-0.497-0.463-0.837-0.439c-0.354-0.004-0.703,0.084-1.012,0.256c-0.406,0.236-0.798,0.494-1.177,0.773v6.199
					h-2.392v-5.482c0.028-0.451-0.063-0.902-0.267-1.307c-0.174-0.293-0.498-0.463-0.837-0.439
					c-0.354-0.004-0.703,0.084-1.011,0.256c-0.414,0.24-0.813,0.506-1.196,0.791v6.182h-2.392v-8.924h1.564l0.405,0.957
					c0.528-0.379,1.104-0.689,1.71-0.92c0.492-0.201,1.015-0.313,1.545-0.33c0.99-0.117,1.955,0.359,2.466,1.213
					c0.525-0.365,1.093-0.664,1.692-0.891C100.507,170.68,101.024,170.57,101.548,170.553z"/>
			</g>
			<g class="console">
				<path id="Trazado_1919" class="st7" d="M116.432,145.423v9.345c0.059,1.098-0.421,2.152-1.289,2.826
					c-1.011,0.701-2.229,1.047-3.458,0.982c-0.623-0.023-1.24-0.119-1.84-0.285c-0.64-0.135-1.25-0.379-1.804-0.727l0.718-1.691
					c0.483,0.242,0.989,0.439,1.508,0.588c0.445,0.121,0.902,0.189,1.362,0.201c0.623,0.021,1.234-0.166,1.739-0.533
					c0.428-0.326,0.67-0.84,0.652-1.379v-0.754c-0.588,0.373-1.271,0.57-1.968,0.57c-1.224,0.063-2.417-0.395-3.283-1.26
					c-0.839-0.934-1.272-2.161-1.206-3.414c-0.018-0.853,0.169-1.698,0.542-2.465c0.348-0.696,0.896-1.273,1.573-1.655
					c0.75-0.409,1.594-0.611,2.447-0.589c0.448,0.009,0.888,0.109,1.297,0.294c0.445,0.187,0.857,0.441,1.224,0.754l0.533-0.809
					H116.432z M112.145,152.523c0.318,0,0.634-0.063,0.929-0.184c0.337-0.143,0.656-0.328,0.947-0.551v-3.809
					c-0.273-0.242-0.584-0.437-0.92-0.58c-0.305-0.119-0.629-0.178-0.956-0.175c-0.607-0.022-1.186,0.257-1.546,0.745
					c-0.399,0.559-0.6,1.236-0.57,1.922c-0.032,0.679,0.166,1.351,0.562,1.906C110.958,152.279,111.539,152.551,112.145,152.523z"/>
				<path id="Trazado_1918" class="st7" d="M106.055,149.856c0.02,0.865-0.183,1.72-0.587,2.483
					c-0.383,0.701-0.961,1.273-1.666,1.646c-0.776,0.4-1.639,0.6-2.512,0.58c-0.871,0.02-1.734-0.176-2.511-0.57
					c-0.703-0.367-1.283-0.934-1.665-1.629c-0.406-0.76-0.609-1.612-0.589-2.474c-0.02-0.864,0.184-1.72,0.589-2.484
					c0.381-0.7,0.959-1.272,1.665-1.646c0.775-0.399,1.639-0.599,2.511-0.579c0.872-0.02,1.734,0.176,2.512,0.57
					c0.704,0.366,1.283,0.933,1.666,1.628C105.873,148.143,106.075,148.995,106.055,149.856z M101.29,152.523
					c0.636,0.014,1.242-0.264,1.647-0.754c0.446-0.534,0.679-1.217,0.652-1.913c0.029-0.69-0.2-1.366-0.643-1.895
					c-0.414-0.483-1.021-0.754-1.657-0.736c-0.634-0.013-1.241,0.265-1.646,0.754c-0.447,0.535-0.68,1.216-0.654,1.913
					c-0.028,0.69,0.202,1.366,0.645,1.896C100.047,152.271,100.656,152.541,101.29,152.523z"/>
				<path id="Trazado_1917" class="st7" d="M95.035,154.346v-12.989l-2.373,0.202v12.787H95.035z"/>
				<path id="Trazado_1909" class="st4" d="M30.773,146.122c-0.475-0.308-0.997-0.538-1.545-0.68
					c-0.501-0.154-1.021-0.241-1.545-0.258c-0.873-0.02-1.736,0.18-2.511,0.579c-0.704,0.373-1.28,0.945-1.656,1.646
					c-0.399,0.766-0.599,1.62-0.579,2.484c-0.021,0.861,0.179,1.712,0.579,2.474c0.377,0.697,0.954,1.264,1.656,1.629
					c0.777,0.395,1.64,0.59,2.511,0.57c0.541-0.012,1.079-0.094,1.6-0.238c0.538-0.125,1.044-0.355,1.49-0.682l-0.681-1.73
					c-0.404,0.188-0.822,0.342-1.251,0.461c-0.372,0.098-0.755,0.148-1.14,0.146c-0.635,0.018-1.244-0.252-1.656-0.734
					c-0.443-0.53-0.672-1.206-0.644-1.896c-0.026-0.697,0.206-1.378,0.653-1.913c0.405-0.489,1.012-0.767,1.647-0.754
					c0.385-0.001,0.768,0.049,1.14,0.147c0.429,0.121,0.847,0.274,1.251,0.46L30.773,146.122z"/>
				<path id="Trazado_1916" class="st4" d="M88.78,154.346c0.356,0.01,0.7-0.131,0.947-0.387c0.251-0.256,0.387-0.6,0.377-0.957
					c0.01-0.355-0.126-0.701-0.377-0.957c-0.247-0.256-0.591-0.395-0.947-0.385c-0.361-0.008-0.709,0.131-0.966,0.385
					c-0.259,0.25-0.403,0.598-0.396,0.957c-0.007,0.361,0.137,0.707,0.396,0.957C88.071,154.215,88.419,154.354,88.78,154.346z"/>
				<path id="Trazado_1915" class="st4" d="M85.763,149.856c0.011-0.81-0.139-1.613-0.441-2.364
					c-0.276-0.684-0.751-1.27-1.362-1.684c-0.673-0.435-1.462-0.653-2.263-0.625c-0.834-0.021-1.659,0.179-2.392,0.579
					c-0.67,0.382-1.211,0.956-1.554,1.646c-0.375,0.773-0.562,1.625-0.542,2.484c-0.071,1.279,0.408,2.529,1.315,3.431
					c1.076,0.896,2.458,1.344,3.854,1.242c0.637,0.014,1.272-0.082,1.877-0.285c0.532-0.193,1.027-0.469,1.471-0.818l-0.699-1.73
					c-0.404,0.236-0.829,0.432-1.27,0.59c-0.427,0.141-0.875,0.209-1.325,0.201c-0.667,0.053-1.331-0.123-1.886-0.496
					c-0.43-0.365-0.715-0.877-0.8-1.435h6.016V149.856z M79.765,148.991c0.059-0.499,0.287-0.962,0.645-1.315
					c0.337-0.303,0.779-0.464,1.232-0.451c0.443-0.018,0.876,0.141,1.205,0.441c0.349,0.364,0.577,0.827,0.653,1.324H79.765z"/>
				<path id="Trazado_1914" class="st4" d="M75.718,154.346v-12.989l-2.374,0.202v12.787H75.718z"/>
				<path id="Trazado_1913" class="st4" d="M71.1,149.856c0.02,0.865-0.184,1.72-0.588,2.483c-0.382,0.701-0.961,1.273-1.665,1.646
					c-0.776,0.4-1.639,0.6-2.512,0.58c-0.872,0.02-1.734-0.176-2.511-0.57c-0.704-0.367-1.283-0.934-1.665-1.629
					c-0.406-0.76-0.609-1.612-0.589-2.474c-0.02-0.864,0.183-1.72,0.589-2.484c0.381-0.7,0.959-1.272,1.665-1.646
					c0.775-0.399,1.638-0.599,2.511-0.579c0.871-0.02,1.733,0.176,2.512,0.57c0.703,0.366,1.283,0.933,1.665,1.628
					C70.917,148.143,71.121,148.995,71.1,149.856z M66.335,152.523c0.636,0.014,1.241-0.264,1.647-0.754
					c0.445-0.534,0.679-1.217,0.652-1.913c0.029-0.69-0.2-1.366-0.643-1.895c-0.413-0.483-1.021-0.754-1.656-0.736
					c-0.634-0.013-1.242,0.265-1.646,0.754c-0.447,0.535-0.68,1.216-0.654,1.913c-0.029,0.69,0.201,1.366,0.644,1.896
					C65.092,152.271,65.701,152.541,66.335,152.523z"/>
				<path id="Trazado_1912" class="st4" d="M53.329,153.646c0.446,0.326,0.953,0.557,1.49,0.682
					c0.521,0.145,1.059,0.227,1.601,0.238c0.974,0.064,1.942-0.191,2.759-0.727c0.641-0.49,0.999-1.264,0.956-2.07
					c0.005-0.701-0.314-1.367-0.864-1.803c-0.646-0.53-1.381-0.941-2.17-1.214c-0.357-0.119-0.704-0.262-1.04-0.432
					c-0.239-0.129-0.358-0.273-0.358-0.433c0.006-0.22,0.12-0.423,0.304-0.542c0.222-0.16,0.49-0.24,0.763-0.23
					c0.382-0.001,0.763,0.048,1.132,0.147c0.426,0.121,0.841,0.275,1.241,0.46l0.719-1.601c-0.471-0.306-0.986-0.536-1.527-0.68
					c-0.496-0.155-1.009-0.241-1.527-0.258c-0.904-0.049-1.798,0.208-2.539,0.727c-0.62,0.472-0.97,1.218-0.939,1.996
					c-0.006,0.663,0.309,1.286,0.846,1.674c0.639,0.479,1.354,0.847,2.116,1.085c1.043,0.319,1.564,0.717,1.564,1.198
					c0,0.244-0.154,0.434-0.46,0.568c-0.319,0.139-0.664,0.207-1.012,0.203c-0.813-0.041-1.607-0.246-2.336-0.607L53.329,153.646z"
					/>
				<path id="Trazado_1911" class="st4" d="M45.197,148.164c0.385-0.284,0.792-0.539,1.214-0.764
					c0.364-0.189,0.768-0.287,1.177-0.285c0.373-0.015,0.729,0.157,0.948,0.46c0.248,0.382,0.368,0.833,0.341,1.288v5.483h2.391
					v-5.593c0.055-0.938-0.183-1.871-0.68-2.667c-0.582-0.695-1.473-1.054-2.373-0.957c-0.573,0.016-1.139,0.128-1.675,0.332
					c-0.628,0.223-1.223,0.532-1.766,0.92l-0.405-0.957h-1.564v8.923h2.392V148.164z"/>
				<path id="Trazado_1910" class="st4" d="M41.664,149.856c0.02,0.865-0.183,1.72-0.587,2.483
					c-0.383,0.701-0.961,1.273-1.666,1.646c-0.776,0.4-1.638,0.6-2.512,0.58c-0.871,0.02-1.733-0.176-2.511-0.57
					c-0.703-0.367-1.283-0.934-1.665-1.629c-0.406-0.76-0.609-1.612-0.589-2.474c-0.02-0.864,0.183-1.72,0.589-2.484
					c0.381-0.7,0.959-1.272,1.665-1.646c0.775-0.399,1.639-0.599,2.511-0.579c0.872-0.02,1.734,0.176,2.512,0.57
					c0.704,0.366,1.283,0.933,1.666,1.628C41.482,148.143,41.685,148.995,41.664,149.856z M36.899,152.523
					c0.636,0.014,1.242-0.264,1.648-0.754c0.445-0.534,0.679-1.217,0.652-1.913c0.029-0.69-0.2-1.366-0.643-1.895
					c-0.413-0.483-1.021-0.754-1.657-0.736c-0.634-0.013-1.241,0.265-1.646,0.754c-0.447,0.535-0.68,1.216-0.654,1.913
					c-0.029,0.69,0.201,1.366,0.644,1.896C35.656,152.271,36.266,152.541,36.899,152.523z"/>
				<path id="Trazado_1927" class="st5" d="M176.737,148.9c0.503-0.446,1.063-0.823,1.665-1.123c0.46-0.256,0.972-0.408,1.498-0.441
					l-0.478-1.913c-0.539,0.028-1.062,0.186-1.527,0.46c-0.541,0.282-1.047,0.628-1.509,1.03l-0.791-1.49h-1.25v8.923h2.392V148.9z"
					/>
				<path id="Trazado_1926" class="st5" d="M166.011,147.98c0.403-0.179,0.821-0.318,1.251-0.414c0.44-0.11,0.891-0.168,1.344-0.175
					c0.383-0.021,0.758,0.115,1.04,0.377c0.265,0.287,0.406,0.667,0.396,1.058h-1.748c-0.884-0.046-1.756,0.217-2.465,0.746
					c-0.624,0.516-0.965,1.298-0.92,2.106c-0.04,0.785,0.255,1.551,0.809,2.107c0.67,0.566,1.536,0.848,2.411,0.781
					c0.914-0.045,1.77-0.471,2.354-1.178l0.405,0.957h1.563v-5.869c0.007-0.605-0.176-1.197-0.524-1.692
					c-0.357-0.51-0.843-0.916-1.407-1.178c-0.608-0.287-1.277-0.431-1.951-0.423c-0.563,0.021-1.126,0.104-1.672,0.248
					c-0.538,0.104-1.054,0.293-1.527,0.561L166.011,147.98z M166.949,151.678c-0.006-0.331,0.126-0.648,0.359-0.883
					c0.249-0.25,0.595-0.384,0.946-0.368h1.804v1.362c-0.51,0.547-1.22,0.865-1.969,0.883c-0.3,0.012-0.593-0.094-0.817-0.295
					C167.067,152.201,166.949,151.947,166.949,151.678z"/>
				<path id="Trazado_1925" class="st5" d="M163.343,141.357v12.989h-1.25l-0.552-0.811c-0.7,0.654-1.618,1.021-2.576,1.031
					c-1.224,0.063-2.416-0.395-3.284-1.26c-0.837-0.934-1.271-2.161-1.204-3.414c-0.018-0.853,0.167-1.698,0.543-2.465
					c0.347-0.696,0.895-1.273,1.572-1.655c0.749-0.409,1.594-0.611,2.446-0.589c0.32,0.004,0.637,0.056,0.938,0.156
					c0.336,0.106,0.655,0.251,0.957,0.433v-4.213L163.343,141.357z M156.941,149.893c-0.032,0.679,0.166,1.351,0.561,1.906
					c0.369,0.48,0.949,0.752,1.555,0.725c0.319,0,0.634-0.063,0.931-0.184c0.336-0.143,0.653-0.328,0.946-0.551v-3.809
					c-0.272-0.242-0.584-0.437-0.92-0.58c-0.305-0.119-0.63-0.178-0.957-0.175c-0.605-0.022-1.185,0.257-1.545,0.745
					C157.112,148.53,156.911,149.207,156.941,149.893z"/>
				<path id="Trazado_1924" class="st5" d="M150.907,151.604c-0.387,0.283-0.791,0.539-1.215,0.764
					c-0.362,0.189-0.767,0.287-1.177,0.285c-0.374,0.016-0.729-0.156-0.946-0.459c-0.25-0.383-0.369-0.834-0.342-1.289v-5.482
					h-2.392v5.593c-0.056,0.939,0.184,1.871,0.682,2.668c0.582,0.693,1.471,1.053,2.373,0.957c0.571-0.018,1.137-0.129,1.675-0.332
					c0.628-0.223,1.222-0.531,1.766-0.92l0.404,0.957h1.563v-8.923h-2.391V151.604z"/>
				<path id="Trazado_1923" class="st5" d="M142.867,154.346v-12.989l-2.373,0.202v12.787H142.867z"/>
				<path id="Trazado_1922" class="st5" d="M131.977,147.98c0.402-0.179,0.82-0.318,1.25-0.414c0.44-0.11,0.892-0.168,1.344-0.175
					c0.383-0.021,0.759,0.115,1.04,0.377c0.265,0.287,0.406,0.667,0.396,1.058h-1.748c-0.884-0.046-1.755,0.217-2.465,0.746
					c-0.623,0.516-0.965,1.298-0.92,2.106c-0.039,0.785,0.255,1.551,0.809,2.107c0.67,0.566,1.536,0.848,2.411,0.781
					c0.914-0.045,1.77-0.471,2.354-1.178l0.406,0.957h1.563v-5.869c0.008-0.605-0.176-1.197-0.524-1.692
					c-0.357-0.51-0.843-0.916-1.407-1.178c-0.608-0.287-1.277-0.431-1.95-0.423c-0.564,0.021-1.127,0.104-1.673,0.248
					c-0.537,0.104-1.053,0.293-1.527,0.561L131.977,147.98z M132.914,151.678c-0.006-0.331,0.126-0.648,0.359-0.883
					c0.25-0.25,0.595-0.384,0.946-0.368h1.805v1.362c-0.511,0.547-1.221,0.865-1.97,0.883c-0.3,0.012-0.593-0.094-0.817-0.295
					C133.032,152.201,132.914,151.947,132.914,151.678z"/>
				<path id="Trazado_1921" class="st5" d="M123.238,153.646c0.446,0.326,0.954,0.557,1.491,0.682
					c0.521,0.145,1.059,0.227,1.601,0.238c0.973,0.064,1.942-0.191,2.759-0.727c0.639-0.49,0.999-1.264,0.956-2.07
					c0.005-0.701-0.314-1.367-0.864-1.803c-0.646-0.53-1.382-0.941-2.17-1.214c-0.358-0.119-0.705-0.262-1.041-0.432
					c-0.239-0.129-0.359-0.273-0.359-0.433c0.007-0.22,0.12-0.423,0.304-0.542c0.223-0.16,0.49-0.24,0.763-0.23
					c0.383-0.001,0.764,0.048,1.132,0.147c0.426,0.121,0.841,0.275,1.242,0.46l0.717-1.601c-0.47-0.306-0.986-0.536-1.526-0.68
					c-0.496-0.155-1.01-0.241-1.527-0.258c-0.904-0.049-1.798,0.208-2.539,0.727c-0.62,0.472-0.97,1.218-0.94,1.996
					c-0.005,0.663,0.309,1.286,0.846,1.674c0.64,0.479,1.355,0.847,2.117,1.085c1.042,0.319,1.563,0.717,1.563,1.198
					c0,0.244-0.152,0.434-0.46,0.568c-0.317,0.139-0.663,0.207-1.011,0.203c-0.812-0.041-1.608-0.246-2.335-0.607L123.238,153.646z"
					/>
				<path id="Trazado_1920" class="st5" d="M122.318,154.363c-0.622-0.822-1.088-1.75-1.379-2.74
					c-0.363-1.029-0.563-2.111-0.588-3.201c0.027-1.056,0.225-2.1,0.588-3.091c0.323-1.014,0.796-1.975,1.399-2.852l-1.859-0.681
					c-0.724,1.013-1.312,2.117-1.747,3.284c-0.392,1.076-0.591,2.212-0.59,3.357c-0.001,1.182,0.205,2.356,0.608,3.468
					c0.412,1.135,0.994,2.199,1.729,3.154L122.318,154.363z"/>
				<path id="Trazado_1928" class="st5" d="M180.343,142.516c0.616,0.812,1.076,1.732,1.353,2.714
					c0.357,1.034,0.554,2.117,0.579,3.21c-0.027,1.058-0.223,2.104-0.579,3.101c-0.314,1.01-0.776,1.967-1.37,2.842l1.839,0.68
					c0.721-1.02,1.312-2.125,1.758-3.293c0.395-1.065,0.598-2.192,0.598-3.33c-0.002-1.18-0.21-2.351-0.616-3.458
					c-0.417-1.139-0.997-2.211-1.721-3.183L180.343,142.516z"/>
			</g>
			<g class="let">
				<path id="Trazado_1895" class="st5" d="M101.309,128.033c0.503-0.445,1.063-0.823,1.665-1.122
					c0.461-0.257,0.974-0.408,1.5-0.441l-0.479-1.914c-0.538,0.028-1.063,0.186-1.527,0.46c-0.542,0.283-1.048,0.628-1.508,1.03
					l-0.792-1.49h-1.251v8.923h2.392V128.033z"/>
				<path id="Trazado_1894" class="st5" d="M90.583,127.113c0.403-0.179,0.822-0.317,1.251-0.414c0.439-0.11,0.89-0.169,1.342-0.175
					c0.384-0.021,0.76,0.115,1.04,0.377c0.266,0.287,0.408,0.667,0.396,1.058h-1.748c-0.883-0.046-1.755,0.217-2.465,0.745
					c-0.623,0.517-0.964,1.299-0.92,2.106c-0.038,0.785,0.255,1.55,0.811,2.107c0.668,0.566,1.534,0.847,2.409,0.782
					c0.917-0.044,1.77-0.472,2.355-1.178l0.404,0.957h1.564v-5.869c0.006-0.605-0.177-1.197-0.524-1.692
					c-0.357-0.51-0.843-0.916-1.409-1.178c-0.609-0.287-1.275-0.431-1.949-0.423c-0.566,0.021-1.127,0.104-1.674,0.249
					c-0.536,0.103-1.051,0.293-1.527,0.561L90.583,127.113z M91.522,130.811c-0.005-0.331,0.124-0.649,0.358-0.883
					c0.25-0.25,0.594-0.384,0.948-0.368h1.802v1.361c-0.509,0.548-1.22,0.867-1.967,0.883c-0.302,0.011-0.594-0.094-0.819-0.294
					C91.639,131.335,91.522,131.08,91.522,130.811z"/>
				<path id="Trazado_1893" class="st5" d="M87.916,120.49v12.988h-1.251l-0.553-0.81c-0.699,0.653-1.619,1.021-2.575,1.03
					c-1.224,0.064-2.417-0.395-3.284-1.26c-0.839-0.933-1.272-2.161-1.205-3.413c-0.018-0.854,0.168-1.698,0.542-2.465
					c0.348-0.696,0.896-1.273,1.574-1.656c0.749-0.408,1.594-0.611,2.446-0.589c0.319,0.004,0.635,0.057,0.938,0.156
					c0.334,0.106,0.656,0.251,0.956,0.433v-4.213L87.916,120.49z M81.513,129.026c-0.032,0.68,0.165,1.351,0.562,1.904
					c0.368,0.482,0.948,0.753,1.555,0.727c0.318,0,0.634-0.062,0.929-0.184c0.338-0.144,0.656-0.33,0.947-0.552v-3.809
					c-0.273-0.242-0.584-0.437-0.92-0.579c-0.305-0.119-0.629-0.178-0.956-0.175c-0.607-0.022-1.185,0.257-1.545,0.745
					C81.684,127.663,81.483,128.339,81.513,129.026z"/>
				<path id="Trazado_1892" class="st5" d="M75.479,130.737c-0.385,0.284-0.792,0.539-1.213,0.763
					c-0.365,0.189-0.769,0.287-1.179,0.285c-0.372,0.016-0.729-0.157-0.947-0.459c-0.248-0.382-0.368-0.833-0.34-1.288v-5.482
					h-2.392v5.593c-0.054,0.938,0.183,1.87,0.681,2.667c0.582,0.695,1.472,1.054,2.374,0.957c0.573-0.016,1.139-0.127,1.674-0.332
					c0.629-0.222,1.224-0.532,1.766-0.92l0.404,0.957h1.564v-8.923h-2.392V130.737z"/>
				<path id="Trazado_1891" class="st5" d="M67.439,133.479V120.49l-2.373,0.202v12.786H67.439z"/>
				<path id="Trazado_1890" class="st5" d="M56.548,127.113c0.402-0.179,0.822-0.317,1.251-0.414
					c0.439-0.11,0.889-0.169,1.342-0.175c0.385-0.021,0.76,0.115,1.041,0.377c0.266,0.287,0.408,0.667,0.395,1.058h-1.748
					c-0.883-0.046-1.755,0.217-2.465,0.745c-0.623,0.517-0.964,1.299-0.92,2.106c-0.038,0.785,0.255,1.55,0.81,2.107
					c0.668,0.566,1.535,0.847,2.409,0.782c0.917-0.044,1.77-0.472,2.355-1.178l0.404,0.957h1.564v-5.869
					c0.006-0.605-0.177-1.197-0.524-1.692c-0.357-0.51-0.843-0.916-1.408-1.178c-0.609-0.287-1.276-0.431-1.949-0.423
					c-0.566,0.021-1.127,0.104-1.675,0.249c-0.535,0.103-1.051,0.293-1.527,0.561L56.548,127.113z M57.487,130.811
					c-0.005-0.331,0.124-0.649,0.358-0.883c0.251-0.25,0.594-0.384,0.948-0.368h1.802v1.361c-0.509,0.548-1.22,0.867-1.967,0.883
					c-0.302,0.011-0.595-0.094-0.819-0.294C57.604,131.335,57.487,131.08,57.487,130.811z"/>
				<path id="Trazado_1889" class="st5" d="M47.81,132.779c0.446,0.325,0.953,0.557,1.49,0.681c0.521,0.146,1.059,0.227,1.601,0.239
					c0.974,0.064,1.942-0.191,2.76-0.727c0.641-0.49,0.999-1.265,0.956-2.07c0.005-0.702-0.314-1.367-0.864-1.803
					c-0.646-0.53-1.382-0.941-2.17-1.215c-0.357-0.118-0.704-0.263-1.04-0.432c-0.239-0.129-0.358-0.273-0.358-0.432
					c0.006-0.22,0.119-0.423,0.303-0.543c0.222-0.159,0.491-0.24,0.764-0.23c0.382-0.001,0.763,0.048,1.131,0.147
					c0.426,0.122,0.841,0.275,1.242,0.46l0.719-1.601c-0.471-0.306-0.986-0.536-1.527-0.681c-0.496-0.154-1.01-0.241-1.527-0.258
					c-0.904-0.048-1.799,0.208-2.539,0.727c-0.62,0.473-0.97,1.218-0.939,1.996c-0.006,0.663,0.31,1.287,0.846,1.675
					c0.639,0.479,1.354,0.847,2.116,1.085c1.042,0.319,1.564,0.718,1.564,1.196c0,0.245-0.154,0.435-0.46,0.57
					c-0.319,0.138-0.664,0.207-1.013,0.203c-0.812-0.04-1.607-0.247-2.335-0.607L47.81,132.779z"/>
				<path id="Trazado_1886" class="st3" d="M26.965,133.479V120.49l-2.374,0.202v12.786H26.965z"/>
				<path id="Trazado_1888" class="st3" d="M40.947,124.574v-2.539l-2.373,0.423v2.116h-1.196v1.84h1.196v4.213
					c-0.051,0.89,0.292,1.758,0.938,2.373c0.733,0.602,1.667,0.904,2.612,0.847c0.335-0.007,0.667-0.063,0.985-0.166
					c0.294-0.078,0.572-0.208,0.819-0.386l-0.699-1.729c-0.304,0.153-0.636,0.234-0.976,0.239c-0.375,0.02-0.735-0.146-0.965-0.441
					c-0.24-0.337-0.36-0.746-0.341-1.159v-3.79h2.355l-0.737-1.84H40.947z"/>
				<path id="Trazado_1887" class="st3" d="M37.01,128.989c0.012-0.809-0.139-1.613-0.441-2.364
					c-0.276-0.684-0.751-1.27-1.362-1.684c-0.673-0.434-1.462-0.652-2.263-0.625c-0.834-0.021-1.659,0.179-2.391,0.58
					c-0.671,0.382-1.212,0.955-1.555,1.646c-0.375,0.773-0.562,1.625-0.542,2.484c-0.071,1.279,0.408,2.527,1.315,3.431
					c1.076,0.897,2.458,1.342,3.854,1.242c0.637,0.014,1.272-0.083,1.876-0.285c0.532-0.192,1.028-0.469,1.471-0.819l-0.699-1.729
					c-0.404,0.235-0.829,0.432-1.269,0.589c-0.427,0.14-0.875,0.208-1.325,0.202c-0.666,0.051-1.331-0.124-1.886-0.497
					c-0.431-0.366-0.715-0.876-0.8-1.435h6.016V128.989z M31.013,128.125c0.059-0.499,0.286-0.963,0.644-1.316
					c0.338-0.303,0.779-0.464,1.232-0.45c0.444-0.018,0.877,0.142,1.205,0.441c0.349,0.364,0.577,0.827,0.653,1.325H31.013z"/>
				<path id="Trazado_1896" class="st7" d="M116.799,125.973h-8.224l0.203,1.784h8.187L116.799,125.973z M116.799,129.817h-8.224
					l0.203,1.766h8.187L116.799,129.817z"/>
				<path id="Trazado_1897" class="st2" d="M121.896,119.828c-0.365-0.002-0.711,0.156-0.949,0.433
					c-0.246,0.247-0.388,0.58-0.395,0.929c0.005,0.33,0.129,0.647,0.35,0.893c0.154,0.231,0.404,0.383,0.681,0.414
					c-0.056,0.314-0.185,0.611-0.377,0.865c-0.262,0.305-0.548,0.588-0.855,0.846l0.514,1.123c0.717-0.409,1.315-0.995,1.739-1.702
					c0.429-0.641,0.668-1.391,0.689-2.162c0.018-0.429-0.127-0.85-0.404-1.177C122.643,119.993,122.279,119.824,121.896,119.828z
					 M125.316,119.828c-0.364-0.001-0.715,0.157-0.956,0.433c-0.251,0.245-0.397,0.578-0.404,0.929
					c0.003,0.329,0.124,0.645,0.34,0.893c0.156,0.235,0.409,0.387,0.689,0.414c-0.054,0.312-0.183,0.605-0.377,0.855
					c-0.27,0.306-0.563,0.592-0.873,0.855l0.533,1.123c0.708-0.413,1.299-0.999,1.72-1.702c0.429-0.641,0.668-1.391,0.689-2.162
					c0.018-0.428-0.122-0.847-0.395-1.177C126.048,119.995,125.692,119.825,125.316,119.828z"/>
				<path id="Trazado_1901" class="st2" d="M156.813,127.113c0.402-0.179,0.821-0.317,1.25-0.414c0.44-0.11,0.892-0.169,1.345-0.175
					c0.382-0.021,0.758,0.115,1.04,0.377c0.264,0.287,0.406,0.667,0.396,1.058h-1.749c-0.884-0.046-1.755,0.217-2.465,0.745
					c-0.623,0.517-0.965,1.299-0.92,2.106c-0.039,0.785,0.256,1.55,0.809,2.107c0.671,0.566,1.536,0.847,2.411,0.782
					c0.915-0.044,1.77-0.472,2.354-1.178l0.406,0.957h1.563v-5.869c0.007-0.605-0.177-1.197-0.525-1.692
					c-0.357-0.51-0.842-0.916-1.406-1.178c-0.609-0.287-1.277-0.431-1.951-0.423c-0.564,0.021-1.127,0.104-1.673,0.249
					c-0.537,0.103-1.053,0.293-1.527,0.561L156.813,127.113z M157.75,130.811c-0.003-0.331,0.126-0.649,0.359-0.883
					c0.25-0.25,0.595-0.384,0.947-0.368h1.804v1.361c-0.511,0.548-1.22,0.867-1.969,0.883c-0.301,0.011-0.594-0.094-0.818-0.294
					C157.869,131.335,157.75,131.08,157.75,130.811z"/>
				<path id="Trazado_1900" class="st2" d="M153.905,133.479V120.49l-2.373,0.202v12.786H153.905z"/>
				<path id="Trazado_1899" class="st2" d="M150.208,128.989c0.02,0.865-0.183,1.72-0.589,2.484c-0.381,0.7-0.96,1.273-1.664,1.646
					c-0.776,0.4-1.641,0.6-2.512,0.58c-0.871,0.02-1.733-0.176-2.512-0.57c-0.704-0.367-1.282-0.933-1.665-1.628
					c-0.406-0.76-0.609-1.612-0.588-2.474c-0.02-0.865,0.184-1.72,0.588-2.484c0.383-0.7,0.961-1.273,1.665-1.646
					c0.776-0.4,1.639-0.599,2.512-0.58c0.871-0.02,1.734,0.176,2.512,0.57c0.702,0.367,1.283,0.933,1.664,1.628
					C150.025,127.275,150.228,128.128,150.208,128.989z M145.443,131.657c0.635,0.013,1.241-0.265,1.646-0.754
					c0.447-0.535,0.682-1.217,0.654-1.914c0.029-0.69-0.201-1.365-0.645-1.895c-0.412-0.482-1.021-0.753-1.655-0.735
					c-0.636-0.013-1.241,0.265-1.647,0.754c-0.445,0.535-0.679,1.217-0.652,1.914c-0.028,0.69,0.201,1.365,0.644,1.895
					C144.2,131.404,144.808,131.675,145.443,131.657z"/>
				<path id="Trazado_1898" class="st2" d="M138.58,133.479v-12.51h-2.373v5.298h-4.93v-5.39l-2.373,0.092v12.51h2.373v-5.298h4.93
					v5.298H138.58z"/>
				<path id="Trazado_1908" class="st2" d="M232.279,119.828c-0.365-0.002-0.712,0.156-0.949,0.433
					c-0.246,0.247-0.388,0.58-0.395,0.929c0.003,0.33,0.129,0.647,0.35,0.893c0.155,0.231,0.404,0.383,0.682,0.414
					c-0.056,0.314-0.186,0.611-0.378,0.865c-0.262,0.305-0.548,0.588-0.856,0.846l0.516,1.123c0.717-0.409,1.314-0.995,1.739-1.702
					c0.428-0.641,0.666-1.391,0.689-2.162c0.017-0.429-0.128-0.85-0.404-1.177C233.026,119.993,232.662,119.824,232.279,119.828z
					 M235.7,119.828c-0.367-0.001-0.716,0.157-0.956,0.433c-0.252,0.245-0.397,0.578-0.406,0.929
					c0.006,0.329,0.126,0.645,0.342,0.893c0.154,0.235,0.409,0.387,0.689,0.414c-0.054,0.312-0.184,0.605-0.377,0.855
					c-0.27,0.306-0.563,0.592-0.873,0.855l0.533,1.123c0.708-0.413,1.299-0.999,1.72-1.702c0.429-0.641,0.668-1.391,0.689-2.162
					c0.019-0.428-0.124-0.847-0.396-1.177C236.431,119.995,236.075,119.825,235.7,119.828z"/>
				<path id="Trazado_1907" class="st2" d="M227.642,128.989l1.914,0.883l0.276-9.309h-2.503L227.642,128.989z M228.58,130.792
					c-0.354-0.005-0.697,0.134-0.947,0.386c-0.261,0.25-0.402,0.596-0.395,0.957c-0.008,0.36,0.134,0.708,0.395,0.957
					c0.25,0.252,0.593,0.392,0.947,0.387c0.361,0.007,0.709-0.132,0.967-0.387c0.26-0.249,0.402-0.596,0.395-0.957
					c0.008-0.36-0.135-0.707-0.395-0.957C229.289,130.924,228.941,130.785,228.58,130.792z"/>
				<path id="Trazado_1906" class="st2" d="M225.637,128.989c0.021,0.865-0.183,1.72-0.589,2.484c-0.381,0.7-0.96,1.273-1.664,1.646
					c-0.775,0.4-1.64,0.6-2.512,0.58c-0.871,0.02-1.733-0.176-2.512-0.57c-0.704-0.367-1.282-0.933-1.665-1.628
					c-0.406-0.76-0.609-1.612-0.588-2.474c-0.02-0.865,0.184-1.72,0.588-2.484c0.383-0.7,0.961-1.273,1.665-1.646
					c0.776-0.4,1.639-0.599,2.512-0.58c0.872-0.02,1.734,0.176,2.512,0.57c0.703,0.367,1.283,0.933,1.664,1.628
					C225.454,127.275,225.657,128.128,225.637,128.989z M220.872,131.657c0.635,0.013,1.242-0.265,1.646-0.754
					c0.447-0.535,0.681-1.217,0.653-1.914c0.029-0.69-0.201-1.365-0.645-1.895c-0.412-0.482-1.021-0.753-1.655-0.735
					c-0.636-0.013-1.241,0.265-1.647,0.754c-0.445,0.535-0.679,1.217-0.651,1.914c-0.029,0.69,0.201,1.365,0.643,1.895
					C219.629,131.404,220.236,131.675,220.872,131.657z"/>
				<path id="Trazado_1905" class="st2" d="M214.855,120.49v12.988h-1.25l-0.552-0.81c-0.701,0.653-1.619,1.021-2.576,1.03
					c-1.224,0.064-2.417-0.395-3.284-1.26c-0.838-0.933-1.271-2.161-1.204-3.413c-0.018-0.854,0.167-1.698,0.543-2.465
					c0.347-0.696,0.895-1.273,1.571-1.656c0.75-0.408,1.594-0.611,2.447-0.589c0.32,0.004,0.636,0.057,0.938,0.156
					c0.336,0.106,0.658,0.251,0.958,0.433v-4.213L214.855,120.49z M208.454,129.026c-0.032,0.68,0.165,1.351,0.561,1.904
					c0.368,0.482,0.949,0.753,1.555,0.727c0.319,0,0.636-0.062,0.93-0.184c0.337-0.144,0.656-0.33,0.947-0.552v-3.809
					c-0.273-0.242-0.584-0.437-0.92-0.579c-0.306-0.119-0.631-0.178-0.957-0.175c-0.605-0.022-1.185,0.257-1.546,0.745
					C208.625,127.663,208.424,128.339,208.454,129.026z"/>
				<path id="Trazado_1904" class="st2" d="M198.813,127.297c0.387-0.284,0.793-0.539,1.215-0.763
					c0.362-0.189,0.767-0.287,1.177-0.286c0.374-0.015,0.729,0.157,0.948,0.46c0.248,0.382,0.367,0.833,0.34,1.288v5.482h2.392
					v-5.593c0.056-0.938-0.184-1.87-0.682-2.667c-0.58-0.695-1.471-1.054-2.373-0.957c-0.571,0.016-1.137,0.128-1.673,0.332
					c-0.629,0.222-1.224,0.532-1.766,0.92l-0.406-0.957h-1.563v8.923h2.391V127.297z"/>
				<path id="Trazado_1903" class="st2" d="M191.381,130.737c-0.384,0.284-0.79,0.539-1.214,0.763
					c-0.363,0.189-0.768,0.287-1.177,0.285c-0.374,0.016-0.729-0.157-0.947-0.459c-0.25-0.382-0.368-0.833-0.342-1.288v-5.482
					h-2.391v5.593c-0.056,0.938,0.183,1.87,0.681,2.667c0.582,0.695,1.472,1.054,2.373,0.957c0.571-0.016,1.138-0.127,1.675-0.332
					c0.629-0.222,1.222-0.532,1.766-0.92l0.404,0.957h1.563v-8.923h-2.392V130.737z"/>
				<path id="Trazado_1902" class="st2" d="M180.655,124.261c0.819-0.078,1.63,0.224,2.199,0.819
					c0.497,0.711,0.734,1.572,0.672,2.438v5.961h-2.394v-5.482c0.029-0.452-0.063-0.902-0.266-1.306
					c-0.174-0.292-0.497-0.463-0.837-0.442c-0.354-0.003-0.703,0.085-1.012,0.258c-0.406,0.236-0.8,0.494-1.179,0.773v6.2h-2.391
					v-5.482c0.028-0.452-0.065-0.902-0.267-1.306c-0.174-0.292-0.497-0.463-0.837-0.442c-0.354-0.003-0.702,0.085-1.012,0.258
					c-0.413,0.241-0.812,0.505-1.196,0.791v6.182h-2.392v-8.923h1.563l0.406,0.957c0.526-0.38,1.103-0.689,1.71-0.92
					c0.49-0.201,1.015-0.313,1.545-0.332c0.99-0.115,1.955,0.36,2.465,1.214c0.524-0.366,1.095-0.666,1.692-0.892
					C179.615,124.387,180.133,124.278,180.655,124.261z"/>
			</g>
		</g>
	</g>
</g>
</svg>
