<svg id="Grupo_550" data-name="Grupo 550" xmlns="http://www.w3.org/2000/svg" width="591.866" height="402.126" viewBox="0 0 591.866 402.126">
  <defs>
    <style>
      .cls-1 {
        fill: #b5b5b6;
      }

      .cls-2 {
        fill: #c1c1c1;
      }

      .cls-3 {
        fill: #171a1e;
      }

      .cls-4 {
        fill: #131619;
      }

      .cls-5 {
        fill: #22272d;
      }

      .cls-6 {
        fill: #3c4148;
      }

      .cls-7 {
        fill: #4f545a;
      }

      .cls-8 {
        fill: #767a7f;
      }

      .cls-9 {
        fill: #00a6fb;
      }

      .cls-10 {
        fill: #f6bd60;
      }

      .cls-11 {
        fill: #067bc2;
      }

      .cls-12 {
        fill: #ff526b;
      }

      .cls-13 {
        fill: #4fc19b;
      }

      .cls-14 {
        fill: #0dab76;
      }
    </style>
  </defs>
  <g id="Grupo_506" data-name="Grupo 506" transform="translate(0)">
    <g id="Grupo_505" data-name="Grupo 505" transform="translate(219.494 326.621)">
      <path id="Trazado_143" data-name="Trazado 143" class="cls-1" d="M-343.744-116.876l7.861,64.965h-82.5l7.859-64.965Z" transform="translate(453.456 116.876)"/>
      <path id="Trazado_146" data-name="Trazado 146" class="cls-1" d="M-301.882-55.617H-443.057a5.5,5.5,0,0,1-5.5-5.5,5.5,5.5,0,0,1,5.5-5.5h141.174a5.5,5.5,0,0,1,5.5,5.5A5.5,5.5,0,0,1-301.882-55.617Z" transform="translate(448.554 131.122)"/>
    </g>
    <path id="Unión_45" data-name="Unión 45" class="cls-1" d="M16,327.116a16,16,0,0,1-16-16V16A16,16,0,0,1,16,0H575.87a16,16,0,0,1,16,16V311.12a16,16,0,0,1-16,16Z"/>
  </g>
  <rect id="Rectángulo_52" data-name="Rectángulo 52" class="cls-2" width="558.919" height="294.169" transform="translate(16.473 16.473)"/>
  <rect id="Rectángulo_424" data-name="Rectángulo 424" class="cls-3" width="558.871" height="275.626" transform="translate(16.443 35.031)"/>
  <g id="Grupo_549" data-name="Grupo 549" transform="translate(16.443 16.204)">
    <g id="Grupo_545" data-name="Grupo 545">
      <g id="Grupo_542" data-name="Grupo 542" transform="translate(0 18.827)">
        <path id="Trazado_1711" data-name="Trazado 1711" class="cls-4" d="M0,0H48.8V275.626H0Z"/>
        <path id="Trazado_1641" data-name="Trazado 1641" class="cls-5" d="M0,0H120.781V275.626H0Z" transform="translate(48.874)"/>
        <path id="Trazado_1642" data-name="Trazado 1642" class="cls-6" d="M0,0H389.144V275.626H0Z" transform="translate(169.726)"/>
      </g>
      <g id="Grupo_544" data-name="Grupo 544">
        <path id="Trazado_1710" data-name="Trazado 1710" class="cls-7" d="M0,0H558.871V18.827H0Z"/>
        <g id="Grupo_543" data-name="Grupo 543" transform="translate(18.827 6.472)">
          <ellipse id="Elipse_2834" data-name="Elipse 2834" class="cls-8" cx="3.236" cy="3.236" rx="3.236" ry="3.236"/>
          <ellipse id="Elipse_2835" data-name="Elipse 2835" class="cls-8" cx="3.236" cy="3.236" rx="3.236" ry="3.236" transform="translate(10.59)"/>
          <ellipse id="Elipse_2836" data-name="Elipse 2836" class="cls-8" cx="3.236" cy="3.236" rx="3.236" ry="3.236" transform="translate(21.18)"/>
        </g>
      </g>
    </g>
    <g id="Grupo_546" data-name="Grupo 546" transform="translate(11.833 39.113)">
      <g id="Grupo_541" data-name="Grupo 541">
        <path id="Trazado_1701" data-name="Trazado 1701" class="cls-1" d="M11.552,0A11.552,11.552,0,1,1,0,11.552,11.552,11.552,0,0,1,11.552,0Z" transform="translate(0 33.768)"/>
        <path id="Trazado_1700" data-name="Trazado 1700" class="cls-9" d="M11.552,0A11.552,11.552,0,1,1,0,11.552,11.552,11.552,0,0,1,11.552,0Z"/>
        <path id="Trazado_1702" data-name="Trazado 1702" class="cls-1" d="M11.552,0A11.552,11.552,0,1,1,0,11.552,11.552,11.552,0,0,1,11.552,0Z" transform="translate(0 67.535)"/>
        <path id="Trazado_1703" data-name="Trazado 1703" class="cls-1" d="M11.552,0A11.552,11.552,0,1,1,0,11.552,11.552,11.552,0,0,1,11.552,0Z" transform="translate(0 101.303)"/>
        <path id="Trazado_1704" data-name="Trazado 1704" class="cls-7" d="M11.552,0A11.552,11.552,0,1,1,0,11.552,11.552,11.552,0,0,1,11.552,0Z" transform="translate(0 135.07)"/>
        <path id="Trazado_1705" data-name="Trazado 1705" class="cls-7" d="M11.552,0A11.552,11.552,0,1,1,0,11.552,11.552,11.552,0,0,1,11.552,0Z" transform="translate(0 168.838)"/>
      </g>
      <g id="Grupo_530" data-name="Grupo 530" transform="translate(183.056 1.777)">
        <g id="Grupo_528" data-name="Grupo 528" transform="translate(0)">
          <path id="Trazado_1689" data-name="Trazado 1689" class="cls-7" d="M3.32,0H49.108a3.32,3.32,0,0,1,3.32,3.32v6.689a3.32,3.32,0,0,1-3.32,3.32H3.32A3.32,3.32,0,0,1,0,10.009V3.32A3.32,3.32,0,0,1,3.32,0Z"/>
          <path id="Trazado_1688" data-name="Trazado 1688" class="cls-7" d="M3.32,0H117.532a3.32,3.32,0,0,1,3.32,3.32v6.689a3.32,3.32,0,0,1-3.32,3.32H3.32A3.32,3.32,0,0,1,0,10.009V3.32A3.32,3.32,0,0,1,3.32,0Z" transform="translate(63.981)"/>
          <path id="Trazado_1687" data-name="Trazado 1687" class="cls-7" d="M3.32,0H49.108a3.32,3.32,0,0,1,3.32,3.32v6.689a3.32,3.32,0,0,1-3.32,3.32H3.32A3.32,3.32,0,0,1,0,10.009V3.32A3.32,3.32,0,0,1,3.32,0Z" transform="translate(291.467 0.889)"/>
        </g>
        <g id="Grupo_529" data-name="Grupo 529" transform="translate(0 28.436)">
          <g id="Grupo_507" data-name="Grupo 507" transform="translate(0 0)">
            <path id="Trazado_1646" data-name="Trazado 1646" class="cls-10" d="M6.926,0A6.926,6.926,0,1,1,0,6.926,6.926,6.926,0,0,1,6.926,0Z" transform="translate(0 0)"/>
            <path id="Trazado_1645" data-name="Trazado 1645" class="cls-7" d="M2.49,0H77.855a2.49,2.49,0,0,1,2.49,2.49v8.872a2.49,2.49,0,0,1-2.49,2.49H2.49A2.49,2.49,0,0,1,0,11.363V2.49A2.49,2.49,0,0,1,2.49,0Z" transform="translate(22.164 0)"/>
          </g>
          <g id="Grupo_508" data-name="Grupo 508" transform="translate(120.852 0)">
            <path id="Trazado_1647" data-name="Trazado 1647" class="cls-11" d="M6.926,0A6.926,6.926,0,1,1,0,6.926,6.926,6.926,0,0,1,6.926,0Z" transform="translate(0 0)"/>
            <path id="Trazado_1648" data-name="Trazado 1648" class="cls-7" d="M2.49,0H77.855a2.49,2.49,0,0,1,2.49,2.49v8.872a2.49,2.49,0,0,1-2.49,2.49H2.49A2.49,2.49,0,0,1,0,11.363V2.49A2.49,2.49,0,0,1,2.49,0Z" transform="translate(22.164 0)"/>
          </g>
          <g id="Grupo_509" data-name="Grupo 509" transform="translate(241.705 0)">
            <path id="Trazado_1650" data-name="Trazado 1650" class="cls-11" d="M6.926,0A6.926,6.926,0,1,1,0,6.926,6.926,6.926,0,0,1,6.926,0Z" transform="translate(0 0)"/>
            <path id="Trazado_1649" data-name="Trazado 1649" class="cls-8" d="M2.49,0H77.855a2.49,2.49,0,0,1,2.49,2.49v8.872a2.49,2.49,0,0,1-2.49,2.49H2.49A2.49,2.49,0,0,1,0,11.363V2.49A2.49,2.49,0,0,1,2.49,0Z" transform="translate(22.164 0)"/>
          </g>
          <g id="Grupo_510" data-name="Grupo 510" transform="translate(0 31.99)">
            <path id="Trazado_1651" data-name="Trazado 1651" class="cls-10" d="M6.926,0A6.926,6.926,0,1,1,0,6.926,6.926,6.926,0,0,1,6.926,0Z" transform="translate(0 0)"/>
            <path id="Trazado_1652" data-name="Trazado 1652" class="cls-8" d="M2.49,0H77.855a2.49,2.49,0,0,1,2.49,2.49v8.872a2.49,2.49,0,0,1-2.49,2.49H2.49A2.49,2.49,0,0,1,0,11.363V2.49A2.49,2.49,0,0,1,2.49,0Z" transform="translate(22.164 0)"/>
          </g>
          <g id="Grupo_511" data-name="Grupo 511" transform="translate(120.852 31.99)">
            <path id="Trazado_1654" data-name="Trazado 1654" class="cls-11" d="M6.926,0A6.926,6.926,0,1,1,0,6.926,6.926,6.926,0,0,1,6.926,0Z" transform="translate(0 0)"/>
            <path id="Trazado_1653" data-name="Trazado 1653" class="cls-7" d="M2.49,0H77.855a2.49,2.49,0,0,1,2.49,2.49v8.872a2.49,2.49,0,0,1-2.49,2.49H2.49A2.49,2.49,0,0,1,0,11.363V2.49A2.49,2.49,0,0,1,2.49,0Z" transform="translate(22.164 0)"/>
          </g>
          <g id="Grupo_512" data-name="Grupo 512" transform="translate(241.705 31.99)">
            <path id="Trazado_1655" data-name="Trazado 1655" class="cls-11" d="M6.926,0A6.926,6.926,0,1,1,0,6.926,6.926,6.926,0,0,1,6.926,0Z" transform="translate(0 0)"/>
            <path id="Trazado_1656" data-name="Trazado 1656" class="cls-8" d="M2.49,0H77.855a2.49,2.49,0,0,1,2.49,2.49v8.872a2.49,2.49,0,0,1-2.49,2.49H2.49A2.49,2.49,0,0,1,0,11.363V2.49A2.49,2.49,0,0,1,2.49,0Z" transform="translate(22.164 0)"/>
          </g>
          <g id="Grupo_513" data-name="Grupo 513" transform="translate(0 63.981)">
            <path id="Trazado_1662" data-name="Trazado 1662" class="cls-10" d="M6.926,0A6.926,6.926,0,1,1,0,6.926,6.926,6.926,0,0,1,6.926,0Z" transform="translate(0 0)"/>
            <path id="Trazado_1661" data-name="Trazado 1661" class="cls-8" d="M2.49,0H77.855a2.49,2.49,0,0,1,2.49,2.49v8.872a2.49,2.49,0,0,1-2.49,2.49H2.49A2.49,2.49,0,0,1,0,11.363V2.49A2.49,2.49,0,0,1,2.49,0Z" transform="translate(22.164 0)"/>
          </g>
          <g id="Grupo_514" data-name="Grupo 514" transform="translate(120.852 63.981)">
            <path id="Trazado_1660" data-name="Trazado 1660" class="cls-10" d="M6.926,0A6.926,6.926,0,1,1,0,6.926,6.926,6.926,0,0,1,6.926,0Z" transform="translate(0 0)"/>
            <path id="Trazado_1659" data-name="Trazado 1659" class="cls-7" d="M2.49,0H77.855a2.49,2.49,0,0,1,2.49,2.49v8.872a2.49,2.49,0,0,1-2.49,2.49H2.49A2.49,2.49,0,0,1,0,11.363V2.49A2.49,2.49,0,0,1,2.49,0Z" transform="translate(22.164 0)"/>
          </g>
          <g id="Grupo_515" data-name="Grupo 515" transform="translate(241.705 63.981)">
            <path id="Trazado_1658" data-name="Trazado 1658" class="cls-11" d="M6.926,0A6.926,6.926,0,1,1,0,6.926,6.926,6.926,0,0,1,6.926,0Z" transform="translate(0 0)"/>
            <path id="Trazado_1657" data-name="Trazado 1657" class="cls-7" d="M2.49,0H77.855a2.49,2.49,0,0,1,2.49,2.49v8.872a2.49,2.49,0,0,1-2.49,2.49H2.49A2.49,2.49,0,0,1,0,11.363V2.49A2.49,2.49,0,0,1,2.49,0Z" transform="translate(22.164 0)"/>
          </g>
          <g id="Grupo_516" data-name="Grupo 516" transform="translate(0 95.971)">
            <path id="Trazado_1663" data-name="Trazado 1663" class="cls-11" d="M6.926,0A6.926,6.926,0,1,1,0,6.926,6.926,6.926,0,0,1,6.926,0Z" transform="translate(0 0)"/>
            <path id="Trazado_1664" data-name="Trazado 1664" class="cls-8" d="M2.49,0H77.855a2.49,2.49,0,0,1,2.49,2.49v8.872a2.49,2.49,0,0,1-2.49,2.49H2.49A2.49,2.49,0,0,1,0,11.363V2.49A2.49,2.49,0,0,1,2.49,0Z" transform="translate(22.164 0)"/>
          </g>
          <g id="Grupo_517" data-name="Grupo 517" transform="translate(120.852 95.971)">
            <path id="Trazado_1665" data-name="Trazado 1665" class="cls-10" d="M6.926,0A6.926,6.926,0,1,1,0,6.926,6.926,6.926,0,0,1,6.926,0Z" transform="translate(0 0)"/>
            <path id="Trazado_1666" data-name="Trazado 1666" class="cls-7" d="M2.49,0H77.855a2.49,2.49,0,0,1,2.49,2.49v8.872a2.49,2.49,0,0,1-2.49,2.49H2.49A2.49,2.49,0,0,1,0,11.363V2.49A2.49,2.49,0,0,1,2.49,0Z" transform="translate(22.164 0)"/>
          </g>
          <g id="Grupo_518" data-name="Grupo 518" transform="translate(241.705 95.971)">
            <path id="Trazado_1667" data-name="Trazado 1667" class="cls-10" d="M6.926,0A6.926,6.926,0,1,1,0,6.926,6.926,6.926,0,0,1,6.926,0Z" transform="translate(0 0)"/>
            <path id="Trazado_1668" data-name="Trazado 1668" class="cls-8" d="M2.49,0H77.855a2.49,2.49,0,0,1,2.49,2.49v8.872a2.49,2.49,0,0,1-2.49,2.49H2.49A2.49,2.49,0,0,1,0,11.363V2.49A2.49,2.49,0,0,1,2.49,0Z" transform="translate(22.164 0)"/>
          </g>
          <g id="Grupo_519" data-name="Grupo 519" transform="translate(0 127.962)">
            <path id="Trazado_1674" data-name="Trazado 1674" class="cls-11" d="M6.926,0A6.926,6.926,0,1,1,0,6.926,6.926,6.926,0,0,1,6.926,0Z" transform="translate(0 0)"/>
            <path id="Trazado_1673" data-name="Trazado 1673" class="cls-8" d="M2.49,0H77.855a2.49,2.49,0,0,1,2.49,2.49v8.872a2.49,2.49,0,0,1-2.49,2.49H2.49A2.49,2.49,0,0,1,0,11.363V2.49A2.49,2.49,0,0,1,2.49,0Z" transform="translate(22.164 0)"/>
          </g>
          <g id="Grupo_522" data-name="Grupo 522" transform="translate(0 156.397)">
            <path id="Trazado_1675" data-name="Trazado 1675" class="cls-12" d="M6.926,0A6.926,6.926,0,1,1,0,6.926,6.926,6.926,0,0,1,6.926,0Z" transform="translate(0 0)"/>
            <path id="Trazado_1676" data-name="Trazado 1676" class="cls-7" d="M2.49,0H77.855a2.49,2.49,0,0,1,2.49,2.49v8.872a2.49,2.49,0,0,1-2.49,2.49H2.49A2.49,2.49,0,0,1,0,11.363V2.49A2.49,2.49,0,0,1,2.49,0Z" transform="translate(22.164 0)"/>
          </g>
          <g id="Grupo_525" data-name="Grupo 525" transform="translate(0 184.834)">
            <path id="Trazado_1686" data-name="Trazado 1686" class="cls-12" d="M6.926,0A6.926,6.926,0,1,1,0,6.926,6.926,6.926,0,0,1,6.926,0Z" transform="translate(0 0)"/>
            <path id="Trazado_1685" data-name="Trazado 1685" class="cls-7" d="M2.49,0H77.855a2.49,2.49,0,0,1,2.49,2.49v8.872a2.49,2.49,0,0,1-2.49,2.49H2.49A2.49,2.49,0,0,1,0,11.363V2.49A2.49,2.49,0,0,1,2.49,0Z" transform="translate(22.164 0)"/>
          </g>
          <g id="Grupo_520" data-name="Grupo 520" transform="translate(120.852 127.962)">
            <path id="Trazado_1672" data-name="Trazado 1672" class="cls-11" d="M6.926,0A6.926,6.926,0,1,1,0,6.926,6.926,6.926,0,0,1,6.926,0Z" transform="translate(0 0)"/>
            <path id="Trazado_1671" data-name="Trazado 1671" class="cls-7" d="M2.49,0H77.855a2.49,2.49,0,0,1,2.49,2.49v8.872a2.49,2.49,0,0,1-2.49,2.49H2.49A2.49,2.49,0,0,1,0,11.363V2.49A2.49,2.49,0,0,1,2.49,0Z" transform="translate(22.164 0)"/>
          </g>
          <g id="Grupo_523" data-name="Grupo 523" transform="translate(120.852 156.397)">
            <path id="Trazado_1677" data-name="Trazado 1677" class="cls-10" d="M6.926,0A6.926,6.926,0,1,1,0,6.926,6.926,6.926,0,0,1,6.926,0Z" transform="translate(0 0)"/>
            <path id="Trazado_1678" data-name="Trazado 1678" class="cls-7" d="M2.49,0H77.855a2.49,2.49,0,0,1,2.49,2.49v8.872a2.49,2.49,0,0,1-2.49,2.49H2.49A2.49,2.49,0,0,1,0,11.363V2.49A2.49,2.49,0,0,1,2.49,0Z" transform="translate(22.164 0)"/>
          </g>
          <g id="Grupo_526" data-name="Grupo 526" transform="translate(120.852 184.834)">
            <path id="Trazado_1684" data-name="Trazado 1684" class="cls-12" d="M6.926,0A6.926,6.926,0,1,1,0,6.926,6.926,6.926,0,0,1,6.926,0Z" transform="translate(0 0)"/>
            <path id="Trazado_1683" data-name="Trazado 1683" class="cls-8" d="M2.49,0H77.855a2.49,2.49,0,0,1,2.49,2.49v8.872a2.49,2.49,0,0,1-2.49,2.49H2.49A2.49,2.49,0,0,1,0,11.363V2.49A2.49,2.49,0,0,1,2.49,0Z" transform="translate(22.164 0)"/>
          </g>
          <g id="Grupo_521" data-name="Grupo 521" transform="translate(241.705 127.962)">
            <path id="Trazado_1670" data-name="Trazado 1670" class="cls-12" d="M6.926,0A6.926,6.926,0,1,1,0,6.926,6.926,6.926,0,0,1,6.926,0Z" transform="translate(0 0)"/>
            <path id="Trazado_1669" data-name="Trazado 1669" class="cls-8" d="M2.49,0H77.855a2.49,2.49,0,0,1,2.49,2.49v8.872a2.49,2.49,0,0,1-2.49,2.49H2.49A2.49,2.49,0,0,1,0,11.363V2.49A2.49,2.49,0,0,1,2.49,0Z" transform="translate(22.164 0)"/>
          </g>
          <g id="Grupo_524" data-name="Grupo 524" transform="translate(241.705 156.397)">
            <path id="Trazado_1679" data-name="Trazado 1679" class="cls-12" d="M6.926,0A6.926,6.926,0,1,1,0,6.926,6.926,6.926,0,0,1,6.926,0Z" transform="translate(0 0)"/>
            <path id="Trazado_1680" data-name="Trazado 1680" class="cls-8" d="M2.49,0H77.855a2.49,2.49,0,0,1,2.49,2.49v8.872a2.49,2.49,0,0,1-2.49,2.49H2.49A2.49,2.49,0,0,1,0,11.363V2.49A2.49,2.49,0,0,1,2.49,0Z" transform="translate(22.164 0)"/>
          </g>
          <g id="Grupo_527" data-name="Grupo 527" transform="translate(241.705 184.834)">
            <path id="Trazado_1682" data-name="Trazado 1682" class="cls-11" d="M6.926,0A6.926,6.926,0,1,1,0,6.926,6.926,6.926,0,0,1,6.926,0Z" transform="translate(0 0)"/>
            <path id="Trazado_1681" data-name="Trazado 1681" class="cls-8" d="M2.49,0H77.855a2.49,2.49,0,0,1,2.49,2.49v8.872a2.49,2.49,0,0,1-2.49,2.49H2.49A2.49,2.49,0,0,1,0,11.363V2.49A2.49,2.49,0,0,1,2.49,0Z" transform="translate(22.164 0)"/>
          </g>
        </g>
      </g>
      <g id="Grupo_540" data-name="Grupo 540" transform="translate(46.208 1.777)">
        <g id="Grupo_531" data-name="Grupo 531">
          <path id="Trazado_1690" data-name="Trazado 1690" class="cls-8" d="M3.32,0H98.871a3.32,3.32,0,0,1,3.32,3.32v6.689a3.32,3.32,0,0,1-3.32,3.32H3.32A3.32,3.32,0,0,1,0,10.009V3.32A3.32,3.32,0,0,1,3.32,0Z"/>
          <path id="Trazado_1691" data-name="Trazado 1691" class="cls-8" d="M2.49,0H49.05a2.49,2.49,0,0,1,2.49,2.49V6.4a2.49,2.49,0,0,1-2.49,2.49H2.49A2.49,2.49,0,0,1,0,6.4V2.49A2.49,2.49,0,0,1,2.49,0Z" transform="translate(0 21.327)"/>
        </g>
        <g id="Grupo_539" data-name="Grupo 539" transform="translate(0 47.097)">
          <g id="Grupo_532" data-name="Grupo 532" transform="translate(0 0)">
            <path id="Trazado_1693" data-name="Trazado 1693" class="cls-8" d="M4.443,0A4.443,4.443,0,1,1,0,4.443,4.443,4.443,0,0,1,4.443,0Z" transform="translate(0 0)"/>
            <path id="Trazado_1692" data-name="Trazado 1692" class="cls-7" d="M2.49,0H49.05a2.49,2.49,0,0,1,2.49,2.49V6.4a2.49,2.49,0,0,1-2.49,2.49H2.49A2.49,2.49,0,0,1,0,6.4V2.49A2.49,2.49,0,0,1,2.49,0Z" transform="translate(14.218 0)"/>
          </g>
          <g id="Grupo_533" data-name="Grupo 533" transform="translate(0 16.884)">
            <path id="Trazado_1694" data-name="Trazado 1694" class="cls-8" d="M4.443,0A4.443,4.443,0,1,1,0,4.443,4.443,4.443,0,0,1,4.443,0Z" transform="translate(0 0)"/>
            <path id="Trazado_1695" data-name="Trazado 1695" class="cls-7" d="M2.49,0H49.05a2.49,2.49,0,0,1,2.49,2.49V6.4a2.49,2.49,0,0,1-2.49,2.49H2.49A2.49,2.49,0,0,1,0,6.4V2.49A2.49,2.49,0,0,1,2.49,0Z" transform="translate(14.218 0)"/>
          </g>
          <g id="Grupo_534" data-name="Grupo 534" transform="translate(0 33.768)">
            <path id="Trazado_1697" data-name="Trazado 1697" class="cls-8" d="M4.443,0A4.443,4.443,0,1,1,0,4.443,4.443,4.443,0,0,1,4.443,0Z" transform="translate(0 0)"/>
            <path id="Trazado_1696" data-name="Trazado 1696" class="cls-7" d="M2.49,0H49.05a2.49,2.49,0,0,1,2.49,2.49V6.4a2.49,2.49,0,0,1-2.49,2.49H2.49A2.49,2.49,0,0,1,0,6.4V2.49A2.49,2.49,0,0,1,2.49,0Z" transform="translate(14.218 0)"/>
          </g>
          <g id="Grupo_535" data-name="Grupo 535" transform="translate(0 50.651)">
            <path id="Trazado_1698" data-name="Trazado 1698" class="cls-8" d="M4.443,0A4.443,4.443,0,1,1,0,4.443,4.443,4.443,0,0,1,4.443,0Z" transform="translate(0 0)"/>
            <path id="Trazado_1699" data-name="Trazado 1699" class="cls-7" d="M2.49,0H49.05a2.49,2.49,0,0,1,2.49,2.49V6.4a2.49,2.49,0,0,1-2.49,2.49H2.49A2.49,2.49,0,0,1,0,6.4V2.49A2.49,2.49,0,0,1,2.49,0Z" transform="translate(14.218 0)"/>
          </g>
        </g>
        <g id="Grupo_538" data-name="Grupo 538" transform="translate(0 220.351)">
          <g id="Grupo_536" data-name="Grupo 536">
            <path id="Trazado_1706" data-name="Trazado 1706" class="cls-13" d="M11.552,0A11.552,11.552,0,1,1,0,11.552,11.552,11.552,0,0,1,11.552,0Z"/>
            <path id="Trazado_1707" data-name="Trazado 1707" class="cls-14" d="M3.554,0A3.554,3.554,0,1,1,0,3.554,3.554,3.554,0,0,1,3.554,0Z" transform="translate(15.995 15.995)"/>
          </g>
          <g id="Grupo_537" data-name="Grupo 537" transform="translate(26.659 4.98)">
            <path id="Trazado_1708" data-name="Trazado 1708" class="cls-6" d="M2.222,0h31.99a2.222,2.222,0,0,1,0,4.443H2.222A2.222,2.222,0,0,1,2.222,0Z"/>
            <path id="Trazado_1709" data-name="Trazado 1709" class="cls-6" d="M2.222,0h16a2.222,2.222,0,0,1,0,4.443h-16A2.222,2.222,0,0,1,2.222,0Z" transform="translate(0 7.998)"/>
          </g>
        </g>
      </g>
    </g>
  </g>
</svg>
