<svg xmlns="http://www.w3.org/2000/svg" viewBox="0 0 36.68 36.68">
  <g id="instagram" transform="translate(0)">
    <path id="Trazado_237" data-name="Trazado 237" d="M25.753,0H10.927A10.939,10.939,0,0,0,0,10.927V25.753A10.939,10.939,0,0,0,10.927,36.68H25.753A10.939,10.939,0,0,0,36.68,25.753V10.927A10.94,10.94,0,0,0,25.753,0ZM32.99,25.753a7.237,7.237,0,0,1-7.237,7.237H10.927A7.237,7.237,0,0,1,3.69,25.753V10.927A7.237,7.237,0,0,1,10.927,3.69H25.753a7.237,7.237,0,0,1,7.237,7.237V25.753Z" transform="translate(0)" fill="#8b8b8b"/>
    <path id="Trazado_238" data-name="Trazado 238" d="M142.487,133a9.487,9.487,0,1,0,9.487,9.487A9.5,9.5,0,0,0,142.487,133Zm0,15.283a5.8,5.8,0,1,1,5.8-5.8A5.8,5.8,0,0,1,142.487,148.283Z" transform="translate(-124.147 -124.147)" fill="#8b8b8b"/>
    <ellipse id="Elipse_16" data-name="Elipse 16" cx="2.273" cy="2.273" rx="2.273" ry="2.273" transform="translate(25.572 6.651)" fill="#8b8b8b"/>
  </g>
</svg>
