<svg version="1.1" id="Capa_1" xmlns="http://www.w3.org/2000/svg" xmlns:xlink="http://www.w3.org/1999/xlink" x="0px" y="0px"
	 width="498.271px" height="136.004px" viewBox="0 0 498.271 136.004" enable-background="new 0 0 498.271 136.004"
	 xml:space="preserve">
<g id="logo-horizontal-white-letter">
	<g>
		
			<linearGradient id="SVGID_1_" gradientUnits="userSpaceOnUse" x1="77.1001" y1="-71.3164" x2="77.1001" y2="-165.9397" gradientTransform="matrix(1.4423 0 0 -1.4423 -55.0622 -103.3123)">
			<stop  offset="0" style="stop-color:#F79550"/>
			<stop  offset="0.3879" style="stop-color:#FB755E"/>
			<stop  offset="0.7688" style="stop-color:#FE5C68"/>
			<stop  offset="1" style="stop-color:#FF536C"/>
		</linearGradient>
		<polygon fill="url(#SVGID_1_)" points="22.438,33.861 34.361,45.793 56.402,23.746 78.025,45.361 89.841,33.547 56.296,0 		"/>
		
			<linearGradient id="SVGID_2_" gradientUnits="userSpaceOnUse" x1="77.2222" y1="-71.3174" x2="77.2222" y2="-165.9314" gradientTransform="matrix(1.4423 0 0 -1.4423 -55.0622 -103.3123)">
			<stop  offset="0" style="stop-color:#F79550"/>
			<stop  offset="0.1044" style="stop-color:#F88B54"/>
			<stop  offset="0.4697" style="stop-color:#FC6C61"/>
			<stop  offset="0.7812" style="stop-color:#FE5A69"/>
			<stop  offset="1" style="stop-color:#FF536C"/>
		</linearGradient>
		<path fill="url(#SVGID_2_)" d="M89.408,57.881c10.135,15.344,8.449,36.197-5.057,49.701
			c-15.437,15.434-40.458,15.434-55.892,0.002c-13.35-13.35-15.102-33.922-5.385-49.182L10.938,46.266
			C-5.271,68.258-3.495,99.541,16.47,119.504c21.999,22,57.666,22,79.662,0c20.077-20.078,21.831-51.535,5.261-73.605L89.408,57.881
			z"/>
	</g>
	<g>
		<path fill="#F7F9F9" d="M164.604,102.184h-28.927V89.697h28.927c0.988,0,1.645-0.332,2.3-0.99
			c0.658-0.654,0.987-1.314,0.987-2.305c0-0.977-0.327-1.639-0.987-1.639c-0.653-0.332-1.312-0.332-2.3-0.332h-13.148
			c-2.304,0-4.277-0.324-6.253-1.309c-1.966-0.984-3.613-1.975-4.926-3.293c-1.313-1.313-2.634-2.957-3.288-4.93
			c-0.654-1.967-1.312-3.943-1.312-6.24c0-2.299,0.327-4.279,1.312-6.25c0.654-1.975,1.975-3.611,3.288-4.93
			c1.313-1.314,2.96-2.633,4.926-3.289c1.976-0.652,3.949-1.313,6.253-1.313h25.636v12.49h-25.636c-0.99,0-1.644,0.324-2.304,0.992
			c-0.661,0.654-0.986,1.311-0.986,2.301c0,0.98,0.324,1.643,0.986,2.299c0.658,0.652,1.313,0.986,2.304,0.986h13.148
			c2.3,0,4.276,0.326,6.245,0.986c1.97,0.658,3.612,1.635,4.932,2.957c1.311,1.318,2.628,2.961,3.285,4.605
			c0.988,1.967,1.313,3.939,1.313,5.912c0,2.303-0.324,4.279-1.313,6.25c-0.982,1.969-1.975,3.617-3.285,4.93
			c-1.319,1.314-2.962,2.631-4.932,3.285C168.881,101.863,166.904,102.184,164.604,102.184z"/>
		<path fill="#F7F9F9" d="M210.951,102.184c-2.953,0-5.914-0.654-8.544-1.648c-2.63-1.309-4.937-2.621-6.904-4.924
			c-1.976-1.969-3.611-4.273-4.936-6.904c-1.311-2.625-1.639-5.584-1.639-8.545V65.367h-6.247v-12.49h6.247V33.154h12.492v19.723
			h19.067v12.49h-19.067v14.795c0,1.313,0.328,2.633,0.657,3.615c0.656,1.314,1.312,2.303,1.971,2.955
			c0.988,0.988,1.973,1.652,2.959,1.973c1.313,0.658,2.301,0.658,3.615,0.658h9.529v12.818h-9.201V102.184z"/>
		<path fill="#F7F9F9" d="M275.059,102.184h-2.963l-4.926-6.896c-1.316,0.986-2.635,1.969-3.947,2.955
			c-1.314,0.984-2.629,1.645-4.271,2.293c-1.645,0.66-2.957,1.328-4.604,1.648c-1.639,0.332-3.289,0.666-4.6,0.666
			c-3.621,0-6.906-0.666-9.867-1.654c-2.963-1.309-5.924-2.953-8.217-5.26c-2.303-2.293-4.271-4.924-5.586-8.211
			c-1.316-3.289-1.972-6.904-1.972-11.174c0-3.945,0.655-7.561,1.972-10.523c1.314-2.959,3.283-5.918,5.586-8.219
			c2.295-2.299,4.934-4.27,8.217-5.26c2.961-1.311,6.246-1.969,9.867-1.969c1.641,0,3.281,0.32,4.926,0.658
			c1.645,0.326,2.961,0.986,4.605,1.645c1.645,0.656,2.963,1.641,4.273,2.627c1.313,0.988,2.633,1.971,3.615,2.957l4.928-5.584
			h2.963V102.184L275.059,102.184z M262.242,76.873c0-1.646-0.334-3.283-0.992-4.928c-0.656-1.643-1.641-2.955-2.631-4.277
			c-0.984-1.307-2.625-2.301-3.945-2.959c-1.645-0.656-3.285-0.98-4.926-0.98c-1.648,0-3.294,0.324-4.939,0.98
			c-1.637,0.658-2.955,1.318-3.941,2.631c-0.99,1.32-1.971,2.633-2.625,4.273c-0.662,1.648-0.99,3.613-0.99,5.922
			c0,2.295,0.328,3.939,0.99,5.91c0.654,1.646,1.635,2.959,2.625,4.279c0.986,0.982,2.305,1.973,3.941,2.631
			c1.646,0.656,3.291,0.984,4.939,0.984c1.641,0,3.281-0.328,4.926-0.984c1.645-0.658,2.961-1.648,3.945-2.963
			c0.99-1.309,1.975-2.629,2.631-4.27C261.908,81.475,262.242,78.85,262.242,76.873z"/>
		<path fill="#F7F9F9" d="M297.404,102.184h-12.488V52.545h2.967l4.273,5.92c1.969-1.969,4.27-3.283,6.896-4.273
			c2.637-0.99,5.26-1.646,8.221-1.646h10.844v12.494h-11.174c-1.311,0-2.631,0.328-3.613,0.654
			c-1.314,0.668-2.297,1.322-2.957,1.975c-0.988,0.992-1.643,1.975-1.979,2.961c-0.654,1.316-0.654,2.305-0.654,3.617v27.936h-0.336
			V102.184z"/>
		<path fill="#F7F9F9" d="M349.357,102.184c-2.967,0-5.926-0.654-8.557-1.648c-2.627-1.309-4.928-2.621-6.898-4.924
			c-1.973-1.969-3.615-4.273-4.932-6.904c-1.313-2.625-1.646-5.584-1.646-8.545V65.367h-6.246v-12.49h6.246V33.154h12.494v19.723
			h19.063v12.49h-19.063v14.795c0,1.313,0.326,2.633,0.662,3.615c0.652,1.314,1.311,2.303,1.967,2.955
			c0.984,0.988,1.979,1.652,2.955,1.973c1.316,0.658,2.301,0.658,3.619,0.658h9.535v12.818h-9.199V102.184z"/>
		<path fill="#F7F9F9" d="M390.773,102.184c-2.961,0-5.918-0.654-8.545-1.648c-2.631-1.309-4.938-2.621-6.91-4.924
			c-1.975-1.969-3.611-4.273-4.928-6.904c-1.314-2.625-1.645-5.584-1.645-8.545V65.367h-6.248v-12.49h6.248V33.154h12.492v19.723
			h19.068v12.49h-19.068v14.795c0,1.313,0.332,2.633,0.656,3.615c0.654,1.314,1.313,2.303,1.977,2.955
			c0.984,0.988,1.969,1.652,2.959,1.973c1.311,0.658,2.299,0.658,3.611,0.658h9.527v12.818h-9.195V102.184z"/>
		<path fill="#F7F9F9" d="M426.602,90.025c0.658,0,0.98,0.328,1.643,0.328c0.332,0,0.984,0,1.643,0c1.322,0,2.301-0.328,3.623-0.656
			c0.984-0.332,2.299-0.99,3.283-1.311c0.984-0.662,1.967-1.322,2.631-2.303c0.652-0.992,1.316-1.977,1.967-2.961l9.211,9.201
			c-1.314,1.648-2.635,3.287-3.953,4.604c-1.643,1.314-3.287,2.299-4.93,3.287c-1.643,0.982-3.609,1.648-5.586,1.969
			c-1.973,0.332-3.951,0.666-5.918,0.666c-3.613,0-6.896-0.666-9.859-1.979c-2.959-1.313-5.914-2.957-8.221-5.26
			c-2.295-2.303-4.273-4.928-5.586-8.219c-1.318-3.285-1.975-6.57-1.975-10.518c0-3.941,0.656-7.557,1.975-10.848
			c1.313-3.289,3.291-5.918,5.586-8.219c2.307-2.299,4.934-3.951,8.221-5.26c2.965-1.311,6.246-1.969,9.859-1.969
			c1.967,0,3.945,0.32,5.918,0.658c1.975,0.658,3.943,1.311,5.586,1.967c1.643,0.988,3.287,1.979,4.93,3.291
			c1.648,1.313,2.963,2.953,3.953,4.605L426.602,90.025z M433.174,64.053c-0.654-0.324-1.309-0.324-1.641-0.324
			c-0.656,0-1.313,0-1.646,0c-1.639,0-3.283,0.324-4.928,0.984c-1.637,0.656-2.955,1.648-3.947,2.629
			c-0.982,1.32-1.969,2.633-2.623,4.271c-0.658,1.648-0.992,3.615-0.992,5.592c0,0.332,0,0.99,0,1.646s0,1.314,0.332,1.643
			c0,0.658,0.326,1.318,0.326,1.646c0,0.322,0.332,0.984,0.664,1.639L433.174,64.053z"/>
		<path fill="#F7F9F9" d="M498.271,62.408l-9.211,9.205c-0.328-1.313-0.988-2.301-1.969-3.615c-0.988-1.32-1.645-1.971-2.635-2.631
			c-0.986-0.658-1.969-1.314-3.289-1.639c-1.311-0.328-2.297-0.664-3.615-0.664c-1.641,0-3.287,0.336-4.93,0.988
			c-1.641,0.656-2.957,1.641-3.943,2.963c-0.98,1.313-1.965,2.957-2.633,4.598c-0.652,1.648-0.986,3.613-0.986,5.922
			c0,1.637,0.332,3.285,0.986,4.928c0.668,1.645,1.652,2.965,2.633,3.941c0.986,0.988,2.303,1.982,3.943,2.631
			c1.643,0.662,3.289,0.99,4.93,0.99c1.318,0,2.305-0.328,3.615-0.66c0.988-0.328,2.303-0.979,3.289-1.311
			c0.99-0.66,1.973-1.318,2.635-2.305c0.652-0.986,1.313-1.969,1.969-2.951l9.211,9.197c-1.322,1.648-2.633,3.295-3.949,4.6
			c-1.646,1.32-3.287,2.307-4.932,3.291c-1.645,0.986-3.617,1.645-5.584,1.979c-1.98,0.322-3.949,0.652-5.924,0.652
			c-3.617,0-6.902-0.652-9.859-1.98c-2.963-1.309-5.914-2.949-8.219-5.246c-2.301-2.305-4.27-4.934-5.582-7.896
			c-1.322-2.959-1.98-6.242-1.98-9.857c0-3.947,0.658-7.232,1.98-10.52c1.313-3.287,3.281-6.248,5.582-8.553
			c2.305-2.299,4.934-4.273,8.219-5.918c2.959-1.313,6.242-1.969,9.859-1.969c1.975,0,3.943,0.322,6.242,0.656
			c1.979,0.662,3.947,1.313,5.594,2.305c1.643,0.984,3.615,2.299,4.93,3.611C495.959,58.465,496.951,60.768,498.271,62.408z"/>
	</g>
</g>
</svg>
