<svg id="Grupo_583" data-name="Grupo 583" xmlns="http://www.w3.org/2000/svg" width="539.987" height="309.105" viewBox="0 0 539.987 309.105">
  <defs>
    <style>
      .cls-1 {
        fill: #b5b5b6;
      }

      .cls-2 {
        fill: #333;
      }

      .cls-3 {
        fill: #3c4148;
      }

      .cls-4 {
        fill: #131619;
      }

      .cls-5 {
        fill: #22272d;
      }

      .cls-6 {
        fill: #4f545a;
      }

      .cls-7 {
        fill: #a2a2a2;
      }

      .cls-8 {
        fill: #2660a4;
      }

      .cls-9 {
        fill: #f6bd60;
      }

      .cls-10 {
        fill: #767a7f;
      }

      .cls-11 {
        fill: #00a6fb;
      }

      .cls-12 {
        fill: #4fc19b;
      }

      .cls-13 {
        fill: #0dab76;
      }

      .cls-14 {
        fill: #067bc2;
      }

      .cls-15 {
        fill: #ff526b;
      }
    </style>
  </defs>
  <g id="Grupo_224" data-name="Grupo 224" transform="translate(0 0)">
    <path id="Trazado_255" data-name="Trazado 255" class="cls-1" d="M7.158,326.135A196.949,196.949,0,0,0,65.8,335.071H488.5a196.905,196.905,0,0,0,58.645-8.936H7.158Z" transform="translate(-7.158 -25.965)"/>
    <path id="Unión_46" data-name="Unión 46" class="cls-1" d="M227.587,301.393a15.49,15.49,0,0,1-2.818-.262v-4.548h0v4.548c-.25-.046-.5-.1-.743-.158a27.517,27.517,0,0,0-6.36-.8H0V296.5H49.245V15.379A13.457,13.457,0,0,1,62.7,1.923H477.345a13.455,13.455,0,0,1,13.424,12.61A13.454,13.454,0,0,0,477.345,1.922H62.7A13.457,13.457,0,0,0,49.245,15.378l-.028-1.924A13.455,13.455,0,0,1,62.671,0H477.317a13.453,13.453,0,0,1,13.453,13.454V296.5h49.192v3.675H322.3a27.549,27.549,0,0,0-6.362.8c-.244.061-.492.112-.743.158a15.485,15.485,0,0,1-2.816.262ZM51.168,296.5v0ZM488.82,13.454h0c0-.024,0-.048,0-.072Q488.82,13.417,488.82,13.454Zm0-.081c0-.022,0-.044,0-.065C488.82,13.329,488.82,13.351,488.82,13.373Zm0-.075c0-.021,0-.042,0-.063C488.819,13.255,488.819,13.277,488.819,13.3Zm0-.073c0-.021,0-.043,0-.064C488.817,13.182,488.818,13.2,488.818,13.225Zm0-.072c0-.023,0-.046,0-.069C488.815,13.107,488.816,13.13,488.816,13.153Zm0-.07a11.451,11.451,0,0,0-2.8-7.154c-.114-.134-.233-.264-.355-.39A11.464,11.464,0,0,1,488.814,13.083ZM51.3,11.7q-.037.244-.064.491c.037-.341.09-.678.156-1.009C51.357,11.358,51.327,11.53,51.3,11.7Zm.229-1.121c-.026.1-.049.2-.072.3q.072-.313.16-.618Q51.571,10.422,51.529,10.583Zm2.459-4.669q.118-.136.241-.268Q54.106,5.778,53.988,5.914Zm431.645-.4c-.048-.052-.1-.1-.148-.152Zm-.179-.183-.007-.007c-.194-.2-.4-.382-.6-.565,0,0,0,0,0,0q-.208-.178-.425-.35h0l-.054-.042A11.6,11.6,0,0,1,485.455,5.331Z" transform="translate(0)"/>
    <rect id="Rectángulo_52" data-name="Rectángulo 52" class="cls-2" width="419.544" height="263.191" transform="translate(60.221 18.714)"/>
  </g>
  <g id="Grupo_582" data-name="Grupo 582" transform="translate(60.603 18.796)">
    <g id="Grupo_581" data-name="Grupo 581">
      <g id="Grupo_567" data-name="Grupo 567" transform="translate(0 14.234)">
        <g id="Grupo_568" data-name="Grupo 568">
          <path id="Trazado_1720" data-name="Trazado 1720" class="cls-3" d="M0,0H419.68V248.884H0Z"/>
        </g>
        <path id="Trazado_1721" data-name="Trazado 1721" class="cls-4" d="M0,0H43.646V248.884H0Z"/>
        <path id="Trazado_1722" data-name="Trazado 1722" class="cls-5" d="M0,0H95.953V248.884H0Z" transform="translate(43.331)"/>
      </g>
      <g id="Grupo_566" data-name="Grupo 566">
        <g id="Grupo_285" data-name="Grupo 285">
          <rect id="Rectángulo_434" data-name="Rectángulo 434" class="cls-6" width="419.641" height="14.234"/>
        </g>
        <g id="Grupo_277" data-name="Grupo 277" transform="translate(13.25 4.987)">
          <ellipse id="Elipse_2834" data-name="Elipse 2834" class="cls-7" cx="2.357" cy="2.357" rx="2.357" ry="2.357"/>
          <ellipse id="Elipse_2835" data-name="Elipse 2835" class="cls-7" cx="2.357" cy="2.357" rx="2.357" ry="2.357" transform="translate(7.714)"/>
          <ellipse id="Elipse_2836" data-name="Elipse 2836" class="cls-7" cx="2.357" cy="2.357" rx="2.357" ry="2.357" transform="translate(15.427)"/>
        </g>
      </g>
    </g>
    <g id="Grupo_580" data-name="Grupo 580" transform="translate(12.14 26.902)">
      <g id="Grupo_579" data-name="Grupo 579" transform="translate(0 0.102)">
        <path id="Trazado_1724" data-name="Trazado 1724" class="cls-1" d="M9.566,0A9.566,9.566,0,1,1,0,9.566,9.566,9.566,0,0,1,9.566,0Z" transform="translate(0 27.961)"/>
        <path id="Trazado_1723" data-name="Trazado 1723" class="cls-8" d="M9.566,0A9.566,9.566,0,1,1,0,9.566,9.566,9.566,0,0,1,9.566,0Z" transform="translate(0 0)"/>
        <path id="Trazado_1725" data-name="Trazado 1725" class="cls-1" d="M9.566,0A9.566,9.566,0,1,1,0,9.566,9.566,9.566,0,0,1,9.566,0Z" transform="translate(0 55.923)"/>
        <path id="Trazado_1726" data-name="Trazado 1726" class="cls-1" d="M9.566,0A9.566,9.566,0,1,1,0,9.566,9.566,9.566,0,0,1,9.566,0Z" transform="translate(0 83.884)"/>
        <path id="Trazado_1727" data-name="Trazado 1727" class="cls-6" d="M9.566,0A9.566,9.566,0,1,1,0,9.566,9.566,9.566,0,0,1,9.566,0Z" transform="translate(0 111.846)"/>
        <path id="Trazado_1728" data-name="Trazado 1728" class="cls-9" d="M9.566,0A9.566,9.566,0,1,1,0,9.566,9.566,9.566,0,0,1,9.566,0Z" transform="translate(0 139.807)"/>
      </g>
      <g id="Grupo_578" data-name="Grupo 578" transform="translate(42.596 0.489)">
        <g id="Grupo_569" data-name="Grupo 569" transform="translate(0 0)">
          <path id="Trazado_1690" data-name="Trazado 1690" class="cls-10" d="M2.246,0H66.888a2.246,2.246,0,0,1,2.246,2.246V6.771a2.246,2.246,0,0,1-2.246,2.246H2.246A2.246,2.246,0,0,1,0,6.771V2.246A2.246,2.246,0,0,1,2.246,0Z" transform="translate(0 0)"/>
          <path id="Trazado_1691" data-name="Trazado 1691" class="cls-10" d="M1.685,0h31.5a1.685,1.685,0,0,1,1.685,1.685V4.327a1.685,1.685,0,0,1-1.685,1.685H1.685A1.685,1.685,0,0,1,0,4.327V1.685A1.685,1.685,0,0,1,1.685,0Z" transform="translate(0 14.428)"/>
        </g>
        <g id="Grupo_570" data-name="Grupo 570" transform="translate(0 33.582)">
          <g id="Grupo_532" data-name="Grupo 532">
            <path id="Trazado_1693" data-name="Trazado 1693" class="cls-11" d="M3.679,0A3.679,3.679,0,1,1,0,3.679,3.679,3.679,0,0,1,3.679,0Z"/>
            <path id="Trazado_1692" data-name="Trazado 1692" class="cls-6" d="M2.062,0H40.616a2.062,2.062,0,0,1,2.062,2.062V5.3a2.062,2.062,0,0,1-2.062,2.062H2.062A2.062,2.062,0,0,1,0,5.3V2.062A2.062,2.062,0,0,1,2.062,0Z" transform="translate(11.773)"/>
          </g>
          <g id="Grupo_533" data-name="Grupo 533" transform="translate(0 13.981)">
            <path id="Trazado_1694" data-name="Trazado 1694" class="cls-10" d="M3.679,0A3.679,3.679,0,1,1,0,3.679,3.679,3.679,0,0,1,3.679,0Z"/>
            <path id="Trazado_1695" data-name="Trazado 1695" class="cls-6" d="M2.062,0H40.616a2.062,2.062,0,0,1,2.062,2.062V5.3a2.062,2.062,0,0,1-2.062,2.062H2.062A2.062,2.062,0,0,1,0,5.3V2.062A2.062,2.062,0,0,1,2.062,0Z" transform="translate(11.773)"/>
          </g>
          <g id="Grupo_534" data-name="Grupo 534" transform="translate(0 27.961)">
            <path id="Trazado_1697" data-name="Trazado 1697" class="cls-10" d="M3.679,0A3.679,3.679,0,1,1,0,3.679,3.679,3.679,0,0,1,3.679,0Z"/>
            <path id="Trazado_1696" data-name="Trazado 1696" class="cls-6" d="M2.062,0H40.616a2.062,2.062,0,0,1,2.062,2.062V5.3a2.062,2.062,0,0,1-2.062,2.062H2.062A2.062,2.062,0,0,1,0,5.3V2.062A2.062,2.062,0,0,1,2.062,0Z" transform="translate(11.773)"/>
          </g>
          <g id="Grupo_535" data-name="Grupo 535" transform="translate(0 41.942)">
            <path id="Trazado_1698" data-name="Trazado 1698" class="cls-9" d="M3.679,0A3.679,3.679,0,1,1,0,3.679,3.679,3.679,0,0,1,3.679,0Z"/>
            <path id="Trazado_1699" data-name="Trazado 1699" class="cls-6" d="M2.062,0H40.616a2.062,2.062,0,0,1,2.062,2.062V5.3a2.062,2.062,0,0,1-2.062,2.062H2.062A2.062,2.062,0,0,1,0,5.3V2.062A2.062,2.062,0,0,1,2.062,0Z" transform="translate(11.773)"/>
          </g>
        </g>
        <g id="Grupo_571" data-name="Grupo 571" transform="translate(0 197.628)">
          <g id="Grupo_536" data-name="Grupo 536" transform="translate(0 0)">
            <path id="Trazado_1706" data-name="Trazado 1706" class="cls-12" d="M9.566,0A9.566,9.566,0,1,1,0,9.566,9.566,9.566,0,0,1,9.566,0Z" transform="translate(0 0)"/>
            <path id="Trazado_1707" data-name="Trazado 1707" class="cls-13" d="M2.943,0A2.943,2.943,0,1,1,0,2.943,2.943,2.943,0,0,1,2.943,0Z" transform="translate(13.245 13.245)"/>
          </g>
          <g id="Grupo_537" data-name="Grupo 537" transform="translate(22.075 4.124)">
            <path id="Trazado_1708" data-name="Trazado 1708" class="cls-3" d="M1.84,0h26.49a1.84,1.84,0,0,1,0,3.679H1.84A1.84,1.84,0,0,1,1.84,0Z"/>
            <path id="Trazado_1709" data-name="Trazado 1709" class="cls-3" d="M1.84,0H15.084a1.84,1.84,0,0,1,0,3.679H1.84A1.84,1.84,0,0,1,1.84,0Z" transform="translate(0 6.623)"/>
          </g>
        </g>
      </g>
      <g id="Grupo_577" data-name="Grupo 577" transform="translate(143.851)">
        <g id="Grupo_572" data-name="Grupo 572" transform="translate(0.146)">
          <path id="Trazado_1689" data-name="Trazado 1689" class="cls-6" d="M2.749,0H40.664a2.749,2.749,0,0,1,2.749,2.749V8.288a2.749,2.749,0,0,1-2.749,2.749H2.749A2.749,2.749,0,0,1,0,8.288V2.749A2.749,2.749,0,0,1,2.749,0Z" transform="translate(0 0)"/>
          <path id="Trazado_1688" data-name="Trazado 1688" class="cls-6" d="M2.749,0H97.323a2.749,2.749,0,0,1,2.749,2.749V8.288a2.749,2.749,0,0,1-2.749,2.749H2.749A2.749,2.749,0,0,1,0,8.288V2.749A2.749,2.749,0,0,1,2.749,0Z" transform="translate(52.979 0)"/>
          <path id="Trazado_1687" data-name="Trazado 1687" class="cls-6" d="M2.749,0H40.664a2.749,2.749,0,0,1,2.749,2.749V8.288a2.749,2.749,0,0,1-2.749,2.749H2.749A2.749,2.749,0,0,1,0,8.288V2.749A2.749,2.749,0,0,1,2.749,0Z" transform="translate(176.354 0)"/>
        </g>
        <g id="Grupo_576" data-name="Grupo 576" transform="translate(0 24.036)">
          <g id="Grupo_507" data-name="Grupo 507" transform="translate(0.146 0)">
            <path id="Trazado_1646" data-name="Trazado 1646" class="cls-9" d="M6.4,0A6.4,6.4,0,1,1,0,6.4,6.4,6.4,0,0,1,6.4,0Z" transform="translate(0 0)"/>
            <path id="Trazado_1645" data-name="Trazado 1645" class="cls-6" d="M2.3,0H71.963a2.3,2.3,0,0,1,2.3,2.3v8.2a2.3,2.3,0,0,1-2.3,2.3H2.3A2.3,2.3,0,0,1,0,10.5V2.3A2.3,2.3,0,0,1,2.3,0Z" transform="translate(20.487 0)"/>
          </g>
          <g id="Grupo_508" data-name="Grupo 508" transform="translate(111.851 0)">
            <path id="Trazado_1647" data-name="Trazado 1647" class="cls-14" d="M6.4,0A6.4,6.4,0,1,1,0,6.4,6.4,6.4,0,0,1,6.4,0Z" transform="translate(0 0)"/>
            <path id="Trazado_1648" data-name="Trazado 1648" class="cls-6" d="M2.3,0H71.963a2.3,2.3,0,0,1,2.3,2.3v8.2a2.3,2.3,0,0,1-2.3,2.3H2.3A2.3,2.3,0,0,1,0,10.5V2.3A2.3,2.3,0,0,1,2.3,0Z" transform="translate(20.487 0)"/>
          </g>
          <g id="Grupo_510" data-name="Grupo 510" transform="translate(0.146 29.569)">
            <path id="Trazado_1651" data-name="Trazado 1651" class="cls-9" d="M6.4,0A6.4,6.4,0,1,1,0,6.4,6.4,6.4,0,0,1,6.4,0Z" transform="translate(0 0)"/>
            <path id="Trazado_1652" data-name="Trazado 1652" class="cls-10" d="M2.3,0H71.963a2.3,2.3,0,0,1,2.3,2.3v8.2a2.3,2.3,0,0,1-2.3,2.3H2.3A2.3,2.3,0,0,1,0,10.5V2.3A2.3,2.3,0,0,1,2.3,0Z" transform="translate(20.487 0)"/>
          </g>
          <g id="Grupo_511" data-name="Grupo 511" transform="translate(111.851 29.569)">
            <path id="Trazado_1654" data-name="Trazado 1654" class="cls-14" d="M6.4,0A6.4,6.4,0,1,1,0,6.4,6.4,6.4,0,0,1,6.4,0Z" transform="translate(0 0)"/>
            <path id="Trazado_1653" data-name="Trazado 1653" class="cls-6" d="M2.3,0H71.963a2.3,2.3,0,0,1,2.3,2.3v8.2a2.3,2.3,0,0,1-2.3,2.3H2.3A2.3,2.3,0,0,1,0,10.5V2.3A2.3,2.3,0,0,1,2.3,0Z" transform="translate(20.487 0)"/>
          </g>
          <g id="Grupo_513" data-name="Grupo 513" transform="translate(0 164.216)">
            <path id="Trazado_1662" data-name="Trazado 1662" class="cls-9" d="M6.4,0A6.4,6.4,0,1,1,0,6.4,6.4,6.4,0,0,1,6.4,0Z" transform="translate(0 0)"/>
            <path id="Trazado_1661" data-name="Trazado 1661" class="cls-10" d="M2.3,0H71.963a2.3,2.3,0,0,1,2.3,2.3v8.2a2.3,2.3,0,0,1-2.3,2.3H2.3A2.3,2.3,0,0,1,0,10.5V2.3A2.3,2.3,0,0,1,2.3,0Z" transform="translate(20.487 0)"/>
          </g>
          <g id="Grupo_519" data-name="Grupo 519" transform="translate(0 138.858)">
            <path id="Trazado_1674" data-name="Trazado 1674" class="cls-14" d="M6.4,0A6.4,6.4,0,1,1,0,6.4,6.4,6.4,0,0,1,6.4,0Z" transform="translate(0 0)"/>
            <path id="Trazado_1673" data-name="Trazado 1673" class="cls-10" d="M2.3,0H71.963a2.3,2.3,0,0,1,2.3,2.3v8.2a2.3,2.3,0,0,1-2.3,2.3H2.3A2.3,2.3,0,0,1,0,10.5V2.3A2.3,2.3,0,0,1,2.3,0Z" transform="translate(20.487 0)"/>
          </g>
          <g id="Grupo_574" data-name="Grupo 574" transform="translate(113.744 164.857)">
            <path id="Trazado_1674-2" data-name="Trazado 1674" class="cls-14" d="M6.4,0A6.4,6.4,0,1,1,0,6.4,6.4,6.4,0,0,1,6.4,0Z" transform="translate(0 0)"/>
            <path id="Trazado_1673-2" data-name="Trazado 1673" class="cls-10" d="M2.3,0H71.963a2.3,2.3,0,0,1,2.3,2.3v8.2a2.3,2.3,0,0,1-2.3,2.3H2.3A2.3,2.3,0,0,1,0,10.5V2.3A2.3,2.3,0,0,1,2.3,0Z" transform="translate(20.487 0)"/>
          </g>
          <g id="Grupo_573" data-name="Grupo 573" transform="translate(113.744 139.428)">
            <path id="Trazado_1684" data-name="Trazado 1684" class="cls-15" d="M6.4,0A6.4,6.4,0,1,1,0,6.4,6.4,6.4,0,0,1,6.4,0Z" transform="translate(0 0)"/>
            <path id="Trazado_1683" data-name="Trazado 1683" class="cls-10" d="M2.3,0H71.963a2.3,2.3,0,0,1,2.3,2.3v8.2a2.3,2.3,0,0,1-2.3,2.3H2.3A2.3,2.3,0,0,1,0,10.5V2.3A2.3,2.3,0,0,1,2.3,0Z" transform="translate(20.487 0)"/>
          </g>
          <g id="Grupo_575" data-name="Grupo 575" transform="translate(0.146 55.044)">
            <path id="Trazado_1675" data-name="Trazado 1675" class="cls-15" d="M6.4,0A6.4,6.4,0,1,1,0,6.4,6.4,6.4,0,0,1,6.4,0Z" transform="translate(0 0.687)"/>
            <path id="Trazado_1729" data-name="Trazado 1729" class="cls-6" d="M5.416,0H180.907a5.416,5.416,0,0,1,5.416,5.416V66.08a5.416,5.416,0,0,1-5.416,5.416H5.416A5.416,5.416,0,0,1,0,66.08V5.416A5.416,5.416,0,0,1,5.416,0Z" transform="translate(20.436 0)"/>
          </g>
        </g>
      </g>
    </g>
  </g>
</svg>
