<svg id="Grupo_565" data-name="Grupo 565" xmlns="http://www.w3.org/2000/svg" width="107.006" height="214.012" viewBox="0 0 107.006 214.012">
  <defs>
    <style>
      .cls-1 {
        fill: #b5b5b6;
      }

      .cls-2 {
        fill: #343434;
      }

      .cls-3 {
        fill: #3c4148;
      }

      .cls-4 {
        fill: #131619;
      }

      .cls-5 {
        fill: #067bc2;
      }

      .cls-6 {
        fill: #2660a4;
      }

      .cls-7 {
        fill: #4f545a;
      }

      .cls-8 {
        fill: #f6bd60;
      }

      .cls-9 {
        fill: #767a7f;
      }

      .cls-10 {
        fill: #ff526b;
      }

      .cls-11 {
        fill: #00a6fb;
      }

      .cls-12 {
        fill: #4fc19b;
      }

      .cls-13 {
        fill: #0dab76;
      }
    </style>
  </defs>
  <path id="Trazado_1553" data-name="Trazado 1553" class="cls-1" d="M14.981,0H92.025a14.981,14.981,0,0,1,14.981,14.981V199.032a14.981,14.981,0,0,1-14.981,14.981H14.981A14.981,14.981,0,0,1,0,199.032V14.981A14.981,14.981,0,0,1,14.981,0Z" transform="translate(0)"/>
  <path id="Trazado_1555" data-name="Trazado 1555" class="cls-2" d="M11.771,0H84.535A11.771,11.771,0,0,1,96.305,11.771V191.541a11.771,11.771,0,0,1-11.771,11.771H11.771A11.771,11.771,0,0,1,0,191.541V11.771A11.771,11.771,0,0,1,11.771,0Z" transform="translate(5.35 5.35)"/>
  <g id="Grupo_564" data-name="Grupo 564" transform="translate(4.966 6.358)">
    <g id="Grupo_560" data-name="Grupo 560">
      <rect id="Rectángulo_437" data-name="Rectángulo 437" class="cls-3" width="96.188" height="195.956" transform="translate(0 5.513)"/>
      <rect id="Rectángulo_531" data-name="Rectángulo 531" class="cls-4" width="25.472" height="195.956" transform="translate(0 5.513)"/>
      <path id="Trazado_1713" data-name="Trazado 1713" class="cls-5" d="M0,0H96.305V7.2H0Z"/>
      <path id="Trazado_1712" data-name="Trazado 1712" class="cls-6" d="M0,0H96.305V10.562H0Z" transform="translate(0 6.697)"/>
    </g>
    <g id="Grupo_563" data-name="Grupo 563" transform="translate(4.352 23.798)">
      <g id="Grupo_558" data-name="Grupo 558" transform="translate(26.022 0.371)">
        <g id="Grupo_553" data-name="Grupo 553" transform="translate(0.089)">
          <path id="Trazado_1689" data-name="Trazado 1689" class="cls-7" d="M1.378,0h19a1.378,1.378,0,0,1,1.378,1.378V4.154a1.378,1.378,0,0,1-1.378,1.378h-19A1.378,1.378,0,0,1,0,4.154V1.378A1.378,1.378,0,0,1,1.378,0Z"/>
          <path id="Trazado_1688" data-name="Trazado 1688" class="cls-7" d="M1.378,0h47.4a1.378,1.378,0,0,1,1.378,1.378V4.154a1.378,1.378,0,0,1-1.378,1.378H1.378A1.378,1.378,0,0,1,0,4.154V1.378A1.378,1.378,0,0,1,1.378,0Z" transform="translate(0 8.704)"/>
          <path id="Trazado_1687" data-name="Trazado 1687" class="cls-7" d="M1.378,0h19a1.378,1.378,0,0,1,1.378,1.378V4.154a1.378,1.378,0,0,1-1.378,1.378h-19A1.378,1.378,0,0,1,0,4.154V1.378A1.378,1.378,0,0,1,1.378,0Z" transform="translate(0 17.407)"/>
        </g>
        <g id="Grupo_557" data-name="Grupo 557" transform="translate(0 33.927)">
          <g id="Grupo_507" data-name="Grupo 507" transform="translate(0 0)">
            <path id="Trazado_1646" data-name="Trazado 1646" class="cls-8" d="M3.768,0A3.768,3.768,0,1,1,0,3.768,3.768,3.768,0,0,1,3.768,0Z" transform="translate(0 0)"/>
            <path id="Trazado_1645" data-name="Trazado 1645" class="cls-7" d="M1.355,0h41a1.355,1.355,0,0,1,1.355,1.355V6.181a1.355,1.355,0,0,1-1.355,1.355h-41A1.355,1.355,0,0,1,0,6.181V1.355A1.355,1.355,0,0,1,1.355,0Z" transform="translate(12.057 0)"/>
          </g>
          <g id="Grupo_510" data-name="Grupo 510" transform="translate(0 17.402)">
            <path id="Trazado_1651" data-name="Trazado 1651" class="cls-8" d="M3.768,0A3.768,3.768,0,1,1,0,3.768,3.768,3.768,0,0,1,3.768,0Z" transform="translate(0 0)"/>
            <path id="Trazado_1652" data-name="Trazado 1652" class="cls-9" d="M1.355,0h41a1.355,1.355,0,0,1,1.355,1.355V6.181a1.355,1.355,0,0,1-1.355,1.355h-41A1.355,1.355,0,0,1,0,6.181V1.355A1.355,1.355,0,0,1,1.355,0Z" transform="translate(12.057 0)"/>
          </g>
          <g id="Grupo_513" data-name="Grupo 513" transform="translate(0 34.804)">
            <path id="Trazado_1662" data-name="Trazado 1662" class="cls-8" d="M3.768,0A3.768,3.768,0,1,1,0,3.768,3.768,3.768,0,0,1,3.768,0Z" transform="translate(0 0)"/>
            <path id="Trazado_1661" data-name="Trazado 1661" class="cls-9" d="M1.355,0h41a1.355,1.355,0,0,1,1.355,1.355V6.181a1.355,1.355,0,0,1-1.355,1.355h-41A1.355,1.355,0,0,1,0,6.181V1.355A1.355,1.355,0,0,1,1.355,0Z" transform="translate(12.057 0)"/>
          </g>
          <g id="Grupo_516" data-name="Grupo 516" transform="translate(0 52.206)">
            <path id="Trazado_1663" data-name="Trazado 1663" class="cls-5" d="M3.768,0A3.768,3.768,0,1,1,0,3.768,3.768,3.768,0,0,1,3.768,0Z" transform="translate(0 0)"/>
            <path id="Trazado_1664" data-name="Trazado 1664" class="cls-9" d="M1.355,0h41a1.355,1.355,0,0,1,1.355,1.355V6.181a1.355,1.355,0,0,1-1.355,1.355h-41A1.355,1.355,0,0,1,0,6.181V1.355A1.355,1.355,0,0,1,1.355,0Z" transform="translate(12.057 0)"/>
          </g>
          <g id="Grupo_519" data-name="Grupo 519" transform="translate(0 69.608)">
            <path id="Trazado_1674" data-name="Trazado 1674" class="cls-5" d="M3.768,0A3.768,3.768,0,1,1,0,3.768,3.768,3.768,0,0,1,3.768,0Z" transform="translate(0 0)"/>
            <path id="Trazado_1673" data-name="Trazado 1673" class="cls-9" d="M1.355,0h41a1.355,1.355,0,0,1,1.355,1.355V6.181a1.355,1.355,0,0,1-1.355,1.355h-41A1.355,1.355,0,0,1,0,6.181V1.355A1.355,1.355,0,0,1,1.355,0Z" transform="translate(12.057 0)"/>
          </g>
          <g id="Grupo_554" data-name="Grupo 554" transform="translate(0 116.39)">
            <path id="Trazado_1674-2" data-name="Trazado 1674" class="cls-5" d="M3.768,0A3.768,3.768,0,1,1,0,3.768,3.768,3.768,0,0,1,3.768,0Z" transform="translate(0 0)"/>
            <path id="Trazado_1673-2" data-name="Trazado 1673" class="cls-9" d="M1.355,0h41a1.355,1.355,0,0,1,1.355,1.355V6.181a1.355,1.355,0,0,1-1.355,1.355h-41A1.355,1.355,0,0,1,0,6.181V1.355A1.355,1.355,0,0,1,1.355,0Z" transform="translate(12.057 0)"/>
          </g>
          <g id="Grupo_522" data-name="Grupo 522" transform="translate(0 85.076)">
            <path id="Trazado_1675" data-name="Trazado 1675" class="cls-10" d="M3.768,0A3.768,3.768,0,1,1,0,3.768,3.768,3.768,0,0,1,3.768,0Z" transform="translate(0 0)"/>
            <path id="Trazado_1676" data-name="Trazado 1676" class="cls-7" d="M1.355,0h41a1.355,1.355,0,0,1,1.355,1.355V6.181a1.355,1.355,0,0,1-1.355,1.355h-41A1.355,1.355,0,0,1,0,6.181V1.355A1.355,1.355,0,0,1,1.355,0Z" transform="translate(12.057 0)"/>
          </g>
          <g id="Grupo_525" data-name="Grupo 525" transform="translate(0 100.545)">
            <path id="Trazado_1686" data-name="Trazado 1686" class="cls-10" d="M3.768,0A3.768,3.768,0,1,1,0,3.768,3.768,3.768,0,0,1,3.768,0Z" transform="translate(0 0)"/>
            <path id="Trazado_1685" data-name="Trazado 1685" class="cls-7" d="M1.355,0h41a1.355,1.355,0,0,1,1.355,1.355V6.181a1.355,1.355,0,0,1-1.355,1.355h-41A1.355,1.355,0,0,1,0,6.181V1.355A1.355,1.355,0,0,1,1.355,0Z" transform="translate(12.057 0)"/>
          </g>
        </g>
      </g>
      <g id="Grupo_562" data-name="Grupo 562">
        <g id="Grupo_555" data-name="Grupo 555" transform="translate(3.264)">
          <path id="Trazado_1715" data-name="Trazado 1715" class="cls-1" d="M5.954,0A5.955,5.955,0,1,1,0,5.955,5.955,5.955,0,0,1,5.954,0Z" transform="translate(0 17.405)"/>
          <path id="Trazado_1714" data-name="Trazado 1714" class="cls-11" d="M5.954,0A5.955,5.955,0,1,1,0,5.955,5.955,5.955,0,0,1,5.954,0Z" transform="translate(0)"/>
          <path id="Trazado_1716" data-name="Trazado 1716" class="cls-1" d="M5.954,0A5.955,5.955,0,1,1,0,5.955,5.955,5.955,0,0,1,5.954,0Z" transform="translate(0 34.811)"/>
          <path id="Trazado_1717" data-name="Trazado 1717" class="cls-1" d="M5.954,0A5.955,5.955,0,1,1,0,5.955,5.955,5.955,0,0,1,5.954,0Z" transform="translate(0 52.217)"/>
          <path id="Trazado_1718" data-name="Trazado 1718" class="cls-7" d="M5.954,0A5.955,5.955,0,1,1,0,5.955,5.955,5.955,0,0,1,5.954,0Z" transform="translate(0 69.622)"/>
          <path id="Trazado_1719" data-name="Trazado 1719" class="cls-7" d="M5.954,0A5.955,5.955,0,1,1,0,5.955,5.955,5.955,0,0,1,5.954,0Z" transform="translate(0 87.028)"/>
        </g>
        <g id="Grupo_561" data-name="Grupo 561" transform="translate(0 143.322)">
          <g id="Grupo_536" data-name="Grupo 536" transform="translate(3.264)">
            <path id="Trazado_1706" data-name="Trazado 1706" class="cls-12" d="M5.64,0A5.64,5.64,0,1,1,0,5.64,5.64,5.64,0,0,1,5.64,0Z" transform="translate(0 0)"/>
            <path id="Trazado_1707" data-name="Trazado 1707" class="cls-13" d="M1.735,0A1.735,1.735,0,1,1,0,1.735,1.735,1.735,0,0,1,1.735,0Z" transform="translate(7.809 7.809)"/>
          </g>
          <g id="Grupo_537" data-name="Grupo 537" transform="translate(0 14.399)">
            <path id="Trazado_1708" data-name="Trazado 1708" class="cls-3" d="M1.085,0H16.7a1.085,1.085,0,0,1,0,2.169H1.085A1.085,1.085,0,0,1,1.085,0Z"/>
            <path id="Trazado_1709" data-name="Trazado 1709" class="cls-3" d="M1.085,0H8.894a1.085,1.085,0,0,1,0,2.169H1.085A1.085,1.085,0,0,1,1.085,0Z" transform="translate(0 3.905)"/>
          </g>
        </g>
      </g>
    </g>
  </g>
  <path id="Unión_43" data-name="Unión 43" class="cls-1" d="M13.91,211.872A13.912,13.912,0,0,1,0,197.962V13.91A13.912,13.912,0,0,1,13.91,0H90.955a13.912,13.912,0,0,1,13.911,13.91V197.962a13.912,13.912,0,0,1-13.911,13.91ZM5.351,14.981v181.91a9.641,9.641,0,0,0,9.631,9.631h74.9a9.641,9.641,0,0,0,9.631-9.631V14.981a9.641,9.641,0,0,0-9.631-9.631H79.65a1.3,1.3,0,0,0-.774,1.059c0,.061,0,.115-.006.171a5.233,5.233,0,0,1-.075.7c-.013.081-.025.158-.044.236v0c-.016.1-.039.19-.065.284s-.044.167-.067.25c-.007.019-.014.038-.019.06s-.013.039-.023.062a.21.21,0,0,1-.014.051c-.011.026-.019.055-.029.083s-.021.063-.034.093c-.024.077-.057.152-.088.227s-.061.146-.1.217a.064.064,0,0,1-.012.031.1.1,0,0,1,0,.015c-.029.063-.061.12-.092.181s-.053.106-.079.156c-.007.014-.017.03-.029.049a.641.641,0,0,1-.042.077c-.019.038-.041.071-.063.106a.28.28,0,0,0-.015.028c-.006.013-.017.024-.024.04s-.029.046-.044.067a.666.666,0,0,1-.05.077.53.53,0,0,1-.044.066.151.151,0,0,1-.024.033c-.019.028-.034.054-.053.079A.5.5,0,0,1,77.7,9.9a.5.5,0,0,1-.057.078c0,.007-.009.012-.012.018a.032.032,0,0,1-.015.016c-.019.028-.041.057-.063.083a.1.1,0,0,1-.025.032.8.8,0,0,1-.07.09h0c-.029.038-.062.075-.092.109a1.084,1.084,0,0,1-.1.112s0,.006,0,.006h0a.6.6,0,0,1-.063.067c-.021.025-.046.051-.071.075a.564.564,0,0,1-.068.067,1.2,1.2,0,0,1-.127.124.755.755,0,0,1-.1.093l-.064.057c-.05.042-.1.087-.153.126s-.1.078-.146.117c-.029.024-.059.047-.09.068a1.219,1.219,0,0,1-.1.077s0,0,0,0a.873.873,0,0,1-.1.071.366.366,0,0,1-.046.034c-.061.038-.118.077-.178.112a1.149,1.149,0,0,1-.14.087,1.313,1.313,0,0,1-.18.1.552.552,0,0,1-.068.04c-.007,0-.009.007-.014.007-.044.025-.089.047-.134.067a.947.947,0,0,1-.121.059.809.809,0,0,1-.109.05c-.019.01-.038.016-.059.025a.234.234,0,0,1-.05.022h0c-.1.04-.188.077-.284.112s-.178.062-.268.09-.2.059-.295.084c-.2.05-.4.092-.608.124-.084.013-.171.024-.259.034a.35.35,0,0,0-.052.007c-.073.007-.149.013-.22.016l-.254.012a.74.74,0,0,0-.082,0H31.979a.714.714,0,0,0-.08,0l-.255-.012c-.07,0-.145-.01-.221-.016a.321.321,0,0,0-.052-.007c-.087-.01-.173-.022-.258-.034-.2-.032-.409-.074-.608-.124-.1-.025-.2-.053-.3-.084s-.176-.059-.266-.09-.19-.071-.286-.112h0a.222.222,0,0,1-.051-.022l-.059-.025a1.114,1.114,0,0,1-.109-.05.887.887,0,0,1-.121-.059c-.046-.021-.09-.042-.133-.067-.007,0-.01,0-.016-.007a.624.624,0,0,1-.067-.04,1.332,1.332,0,0,1-.181-.1,1.3,1.3,0,0,1-.139-.087c-.061-.035-.118-.074-.177-.112a.334.334,0,0,1-.047-.034c-.037-.022-.071-.046-.106-.071a0,0,0,0,1,0,0c-.037-.025-.07-.049-.106-.077s-.059-.044-.09-.068c-.05-.039-.1-.077-.146-.117s-.1-.084-.153-.126c-.022-.019-.039-.038-.063-.057a.911.911,0,0,1-.1-.093,1.551,1.551,0,0,1-.127-.124.637.637,0,0,1-.067-.067c-.025-.024-.051-.05-.072-.075a.693.693,0,0,1-.062-.067h0a.5.5,0,0,1-.05-.059c-.049-.057-.1-.111-.143-.168h0a.937.937,0,0,1-.071-.09.132.132,0,0,1-.024-.032,1.036,1.036,0,0,1-.063-.083A.042.042,0,0,1,27.088,10c0-.007-.01-.012-.013-.018a.4.4,0,0,1-.057-.078.4.4,0,0,1-.04-.052c-.019-.025-.034-.051-.053-.079A.18.18,0,0,1,26.9,9.74a.519.519,0,0,1-.043-.066.558.558,0,0,1-.05-.077.667.667,0,0,1-.042-.067c-.007-.013-.016-.024-.025-.04s-.01-.019-.016-.028a.926.926,0,0,1-.062-.106.459.459,0,0,1-.044-.077l-.028-.049c-.027-.05-.055-.1-.08-.156s-.063-.118-.09-.181a.105.105,0,0,1-.007-.015.087.087,0,0,1-.013-.031c-.035-.07-.065-.143-.1-.217s-.064-.15-.088-.227c-.013-.031-.022-.062-.034-.093l-.028-.083a.265.265,0,0,1-.015-.051c-.009-.022-.015-.039-.022-.062s-.013-.04-.019-.06c-.024-.084-.05-.168-.068-.25s-.045-.186-.065-.284v0c-.019-.077-.032-.155-.044-.236a5.263,5.263,0,0,1-.074-.7c0-.057-.006-.111-.006-.171a1.306,1.306,0,0,0-.775-1.059H14.981A9.641,9.641,0,0,0,5.351,14.981Z" transform="translate(1.07 1.07)"/>
</svg>
