<svg id="Grupo_163" data-name="Grupo 163" xmlns="http://www.w3.org/2000/svg" xmlns:xlink="http://www.w3.org/1999/xlink"  viewBox="0 0 262 60.867">
  <defs>
    <clipPath id="clip-path">
      <path id="Trazado_40" data-name="Trazado 40" d="M0-71.074H262v60.867H0Z" transform="translate(0 71.074)" fill="none"/>
    </clipPath>
    <clipPath id="clip-path-2">
      <path id="Trazado_42" data-name="Trazado 42" d="M26.929-71.074,11.779-55.924,17.108-50.6l9.823-9.824,9.822,9.82,5.324-5.325Z" transform="translate(-11.779 71.074)" fill="#fff"/>
    </clipPath>
    <clipPath id="clip-path-3">
      <path id="Trazado_44" data-name="Trazado 44" d="M0-31.948A25.233,25.233,0,0,0,25.238-6.738h0c13.835,0,23.522-11.146,25.234-24.949h0v-.582A24.631,24.631,0,0,0,45.54-46.891h0l-5.422,5.409a17.553,17.553,0,0,1,2.771,9.51h0A17.664,17.664,0,0,1,25.226-14.311h0A17.664,17.664,0,0,1,7.563-31.972h0A17.564,17.564,0,0,1,10.352-41.5h0L4.931-46.921A25.078,25.078,0,0,0,0-31.948" transform="translate(0 46.921)" fill="#fff"/>
    </clipPath>
  </defs>
  <g id="Grupo_49" data-name="Grupo 49" clip-path="url(#clip-path)">
    <g id="Grupo_41" data-name="Grupo 41" transform="translate(65.533 21.939)">
      <path id="Trazado_32" data-name="Trazado 32" d="M-2.628-4.48H-18.3v-6.765H-2.628a1.618,1.618,0,0,0,1.246-.537A1.613,1.613,0,0,0-.847-13.03c0-.531-.178-.888-.535-.888A2.623,2.623,0,0,0-2.628-14.1H-9.753a7.25,7.25,0,0,1-3.386-.712,9.948,9.948,0,0,1-2.671-1.783,7.015,7.015,0,0,1-1.78-2.671,10.4,10.4,0,0,1-.712-3.381,7.241,7.241,0,0,1,.712-3.386A6.992,6.992,0,0,1-15.81-28.7a7.016,7.016,0,0,1,2.671-1.78,10.391,10.391,0,0,1,3.386-.712H4.139v6.765H-9.753A1.606,1.606,0,0,0-11-23.892a1.606,1.606,0,0,0-.535,1.248A1.61,1.61,0,0,0-11-21.4a1.616,1.616,0,0,0,1.246.534h7.124a10.3,10.3,0,0,1,3.384.535,6.681,6.681,0,0,1,2.672,1.6,8.089,8.089,0,0,1,1.78,2.494,6.986,6.986,0,0,1,.712,3.2,7.253,7.253,0,0,1-.712,3.388,10,10,0,0,1-1.78,2.67A7.062,7.062,0,0,1,.756-5.191a7.2,7.2,0,0,1-3.384.712" transform="translate(18.302 31.194)" fill="#fff"/>
    </g>
    <g id="Grupo_42" data-name="Grupo 42" transform="translate(91.003 11.251)">
      <path id="Trazado_33" data-name="Trazado 33" d="M-2.569-6.272A13.29,13.29,0,0,1-7.2-7.165a11.043,11.043,0,0,1-3.74-2.668,14.314,14.314,0,0,1-2.674-3.742,10.244,10.244,0,0,1-.89-4.63v-8.017h-3.384v-6.765H-14.5V-43.674h6.77v10.688H2.6v6.765H-7.733V-18.2a6.4,6.4,0,0,0,.356,1.959,6.15,6.15,0,0,0,1.068,1.6,4.147,4.147,0,0,0,1.6,1.069,3.839,3.839,0,0,0,1.959.355H2.417v6.947Z" transform="translate(17.886 43.674)" fill="#fff"/>
    </g>
    <g id="Grupo_43" data-name="Grupo 43" transform="translate(113.446 20.691)">
      <path id="Trazado_34" data-name="Trazado 34" d="M-3.465-2.39A7.165,7.165,0,0,0-4-5.061,10.086,10.086,0,0,0-5.428-7.377a6.128,6.128,0,0,0-2.137-1.6,7.143,7.143,0,0,0-2.669-.534,7.138,7.138,0,0,0-2.674.534,4.541,4.541,0,0,0-2.137,1.425A10.037,10.037,0,0,0-16.469-5.24,8.615,8.615,0,0,0-17-2.034a9.286,9.286,0,0,0,.534,3.2,9.941,9.941,0,0,0,1.425,2.317,6.394,6.394,0,0,0,2.137,1.426,7.154,7.154,0,0,0,2.674.533,7.159,7.159,0,0,0,2.669-.533,4.862,4.862,0,0,0,2.137-1.6A10.008,10.008,0,0,0-4,.995,10.394,10.394,0,0,0-3.465-2.39M3.479,11.324H1.874L-.8,7.587l-2.138,1.6a9.506,9.506,0,0,1-2.314,1.244,13.438,13.438,0,0,1-2.494.893,13.9,13.9,0,0,1-2.492.359,16.837,16.837,0,0,1-5.347-.892,14.571,14.571,0,0,1-4.452-2.852A13.118,13.118,0,0,1-23.06,3.487a15.973,15.973,0,0,1-1.069-6.055,14.144,14.144,0,0,1,1.069-5.7,15.154,15.154,0,0,1,3.027-4.456,10.678,10.678,0,0,1,4.452-2.851,13.058,13.058,0,0,1,5.347-1.066,13.554,13.554,0,0,1,2.669.355,13.838,13.838,0,0,1,2.494.892,9.914,9.914,0,0,1,2.317,1.424A19.044,19.044,0,0,1-.8-12.365l2.669-3.026H3.479Z" transform="translate(24.129 16.639)" fill="#fff"/>
    </g>
    <g id="Grupo_44" data-name="Grupo 44" transform="translate(146.397 21.758)">
      <path id="Trazado_35" data-name="Trazado 35" d="M-1.135-4.51H-7.9v-26.9H-6.3L-3.981-28.2A10.162,10.162,0,0,1-.244-30.513a12.411,12.411,0,0,1,4.456-.893h5.876v6.769H4.033a6.4,6.4,0,0,0-1.959.356,6.391,6.391,0,0,0-1.6,1.07,4.26,4.26,0,0,0-1.07,1.6A3.844,3.844,0,0,0-.955-19.65V-4.51Z" transform="translate(7.902 31.406)" fill="#fff"/>
    </g>
    <g id="Grupo_45" data-name="Grupo 45" transform="translate(165.988 11.251)">
      <path id="Trazado_36" data-name="Trazado 36" d="M-2.57-6.272a13.3,13.3,0,0,1-4.636-.893,11.013,11.013,0,0,1-3.736-2.668,14.275,14.275,0,0,1-2.674-3.742,10.245,10.245,0,0,1-.892-4.63v-8.017h-3.386v-6.765h3.386V-43.674h6.769v10.688H2.591v6.765H-7.738V-18.2a6.294,6.294,0,0,0,.359,1.959,6.108,6.108,0,0,0,1.066,1.6,4.153,4.153,0,0,0,1.6,1.069,3.837,3.837,0,0,0,1.959.355H2.415v6.947Z" transform="translate(17.893 43.674)" fill="#fff"/>
    </g>
    <g id="Grupo_46" data-name="Grupo 46" transform="translate(188.433 11.251)">
      <path id="Trazado_37" data-name="Trazado 37" d="M-2.569-6.272A13.254,13.254,0,0,1-7.2-7.165a11.048,11.048,0,0,1-3.743-2.668,14.249,14.249,0,0,1-2.672-3.742A10.246,10.246,0,0,1-14.5-18.2v-8.017h-3.384v-6.765H-14.5V-43.674h6.77v10.688H2.6v6.765H-7.735V-18.2a6.5,6.5,0,0,0,.356,1.959,6.044,6.044,0,0,0,1.07,1.6,4.129,4.129,0,0,0,1.6,1.069,3.837,3.837,0,0,0,1.959.355H2.415v6.947Z" transform="translate(17.889 43.674)" fill="#fff"/>
    </g>
    <path id="Trazado_38" data-name="Trazado 38" d="M-2.6-1.224A1.93,1.93,0,0,0-3.487-1.4h-.89a7.159,7.159,0,0,0-2.672.534A6.476,6.476,0,0,0-9.186.557a10.059,10.059,0,0,0-1.422,2.315A8.29,8.29,0,0,0-11.144,5.9v.892a1.331,1.331,0,0,0,.178.889,7.809,7.809,0,0,0,.177.891,3.062,3.062,0,0,0,.358.889ZM-6.157,12.848c.355,0,.529.178.891.178h.889a7.629,7.629,0,0,0,1.962-.355c.534-.182,1.246-.537,1.78-.711A4.922,4.922,0,0,0,.79,10.712c.355-.535.713-1.07,1.067-1.6l4.988,4.987a30.383,30.383,0,0,1-2.138,2.494,23.779,23.779,0,0,1-2.672,1.781A8.692,8.692,0,0,1-.993,19.436a19.529,19.529,0,0,1-3.2.359,13.034,13.034,0,0,1-5.343-1.07A14.6,14.6,0,0,1-14,15.875a13.181,13.181,0,0,1-3.028-4.452,14.756,14.756,0,0,1-1.069-5.7A15.668,15.668,0,0,1-17.023-.154,13.178,13.178,0,0,1-14-4.61,12.779,12.779,0,0,1-9.541-7.46,13.046,13.046,0,0,1-4.2-8.526a19.338,19.338,0,0,1,3.2.355c1.07.358,2.138.711,3.027,1.069A23.008,23.008,0,0,1,4.706-5.319,9.245,9.245,0,0,1,6.844-2.825Z" transform="translate(229.325 29.217)" fill="#fff"/>
    <g id="Grupo_48" data-name="Grupo 48" transform="translate(237.062 20.691)">
      <path id="Trazado_39" data-name="Trazado 39" d="M-4.182-1.075-9.171,3.911A5.388,5.388,0,0,0-10.24,1.952,5.36,5.36,0,0,0-11.668.526a5.529,5.529,0,0,0-1.78-.889A7.594,7.594,0,0,0-15.408-.72a7.2,7.2,0,0,0-2.673.534,4.851,4.851,0,0,0-2.134,1.6,11.562,11.562,0,0,0-1.428,2.492,8.649,8.649,0,0,0-.535,3.206,7.158,7.158,0,0,0,.535,2.671,6.421,6.421,0,0,0,1.428,2.137A6.293,6.293,0,0,0-18.08,13.35a7.1,7.1,0,0,0,2.673.537,7.42,7.42,0,0,0,1.959-.359c.535-.178,1.248-.529,1.78-.712a4.737,4.737,0,0,0,1.428-1.248q.533-.8,1.069-1.6l4.989,4.985a30.47,30.47,0,0,1-2.14,2.492,22.684,22.684,0,0,1-2.672,1.783A8.809,8.809,0,0,1-12.02,20.3a20.06,20.06,0,0,1-3.208.354,12.914,12.914,0,0,1-5.344-1.072,14.607,14.607,0,0,1-4.453-2.843,14.35,14.35,0,0,1-3.026-4.277,12.994,12.994,0,0,1-1.07-5.345,14.735,14.735,0,0,1,1.07-5.7,13.911,13.911,0,0,1,3.026-4.632,16.881,16.881,0,0,1,4.453-3.207,13.036,13.036,0,0,1,5.344-1.066,23.911,23.911,0,0,1,3.383.355A15.507,15.507,0,0,1-8.814-5.886a14.747,14.747,0,0,1,2.669,1.96c.712.712,1.246,1.959,1.963,2.85" transform="translate(29.12 7.487)" fill="#fff"/>
    </g>
  </g>
  <g id="Grupo_51" data-name="Grupo 51" transform="translate(10.087)" clip-path="url(#clip-path-2)">
    <g id="Grupo_50" data-name="Grupo 50" transform="translate(-10.087 60.867) rotate(-90)">
      <path id="Trazado_41" data-name="Trazado 41" d="M60.867,0V262H0V0Z" fill="#fff"/>
    </g>
  </g>
  <g id="Grupo_53" data-name="Grupo 53" transform="translate(0 20.684)" clip-path="url(#clip-path-3)">
    <g id="Grupo_52" data-name="Grupo 52" transform="translate(0 40.183) rotate(-90)">
      <path id="Trazado_43" data-name="Trazado 43" d="M60.867,0V262H0V0Z" transform="translate(0 0)" fill="#fff"/>
    </g>
  </g>
</svg>
