<svg id="Grupo_613" data-name="Grupo 613" xmlns="http://www.w3.org/2000/svg" width="326.373" height="248.433" viewBox="0 0 326.373 248.433">
  <defs>
    <style>
      .cls-1 {
        fill: #3c4148;
      }

      .cls-2 {
        fill: #131619;
      }

      .cls-3 {
        fill: #22272d;
      }

      .cls-4 {
        fill: #4f545a;
      }

      .cls-5 {
        fill: #a2a2a2;
      }

      .cls-6 {
        fill: #2660a4;
      }

      .cls-7 {
        fill: #b5b5b6;
      }

      .cls-8 {
        fill: #f6bd60;
      }

      .cls-9 {
        fill: #767a7f;
      }

      .cls-10 {
        fill: #4fc19b;
      }

      .cls-11 {
        fill: #0dab76;
      }

      .cls-12 {
        fill: #ff526b;
      }

      .cls-13 {
        fill: #067bc2;
      }
    </style>
  </defs>
  <g id="Grupo_612" data-name="Grupo 612" transform="translate(7.848 8.54)">
    <g id="Grupo_611" data-name="Grupo 611" transform="translate(0 0)">
      <g id="Grupo_599" data-name="Grupo 599" transform="translate(0 11.9)">
        <rect id="Rectángulo_437" data-name="Rectángulo 437" class="cls-1" width="310.955" height="219.67"/>
        <path id="Trazado_1731" data-name="Trazado 1731" class="cls-2" d="M0,0H37.232V204.512H0Z" transform="translate(0 15.158)"/>
        <path id="Trazado_1733" data-name="Trazado 1733" class="cls-3" d="M0,0H68.619V204.512H0Z" transform="translate(37.232 15.158)"/>
      </g>
      <g id="Grupo_335" data-name="Grupo 335">
        <path id="Trazado_1730" data-name="Trazado 1730" class="cls-4" d="M0,0H310.909V12.592H0Z"/>
        <g id="Grupo_277" data-name="Grupo 277" transform="translate(11.691 4.491)">
          <ellipse id="Elipse_2834" data-name="Elipse 2834" class="cls-5" cx="2.009" cy="2.009" rx="2.009" ry="2.009"/>
          <ellipse id="Elipse_2835" data-name="Elipse 2835" class="cls-5" cx="2.009" cy="2.009" rx="2.009" ry="2.009" transform="translate(6.576)"/>
          <ellipse id="Elipse_2836" data-name="Elipse 2836" class="cls-5" cx="2.009" cy="2.009" rx="2.009" ry="2.009" transform="translate(13.152)"/>
        </g>
      </g>
      <g id="Grupo_600" data-name="Grupo 600" transform="translate(0 12.044)">
        <path id="Trazado_1732" data-name="Trazado 1732" class="cls-6" d="M0,0H310.955V15.014H0Z"/>
      </g>
    </g>
    <g id="Grupo_610" data-name="Grupo 610" transform="translate(10.654 37.57)">
      <g id="Grupo_584" data-name="Grupo 584" transform="translate(0 0.333)">
        <path id="Trazado_1701" data-name="Trazado 1701" class="cls-7" d="M8.663,0A8.663,8.663,0,1,1,0,8.663,8.663,8.663,0,0,1,8.663,0Z" transform="translate(0 25.323)"/>
        <path id="Trazado_1700" data-name="Trazado 1700" class="cls-8" d="M8.663,0A8.663,8.663,0,1,1,0,8.663,8.663,8.663,0,0,1,8.663,0Z" transform="translate(0)"/>
        <path id="Trazado_1702" data-name="Trazado 1702" class="cls-7" d="M8.663,0A8.663,8.663,0,1,1,0,8.663,8.663,8.663,0,0,1,8.663,0Z" transform="translate(0 50.646)"/>
        <path id="Trazado_1703" data-name="Trazado 1703" class="cls-7" d="M8.663,0A8.663,8.663,0,1,1,0,8.663,8.663,8.663,0,0,1,8.663,0Z" transform="translate(0 75.968)"/>
        <path id="Trazado_1704" data-name="Trazado 1704" class="cls-4" d="M8.663,0A8.663,8.663,0,1,1,0,8.663,8.663,8.663,0,0,1,8.663,0Z" transform="translate(0 101.292)"/>
        <path id="Trazado_1705" data-name="Trazado 1705" class="cls-4" d="M8.663,0A8.663,8.663,0,1,1,0,8.663,8.663,8.663,0,0,1,8.663,0Z" transform="translate(0 126.615)"/>
      </g>
      <g id="Grupo_609" data-name="Grupo 609" transform="translate(30.551 0)">
        <g id="Grupo_591" data-name="Grupo 591" transform="translate(0)">
          <path id="Trazado_1691" data-name="Trazado 1691" class="cls-9" d="M1.867,0H36.783a1.867,1.867,0,0,1,1.867,1.867V4.8a1.867,1.867,0,0,1-1.867,1.867H1.867A1.867,1.867,0,0,1,0,4.8V1.867A1.867,1.867,0,0,1,1.867,0Z" transform="translate(0 11.773)"/>
          <path id="Trazado_1734" data-name="Trazado 1734" class="cls-9" d="M2.294,0H45.182a2.294,2.294,0,0,1,2.294,2.294v3.6a2.294,2.294,0,0,1-2.294,2.294H2.294A2.294,2.294,0,0,1,0,5.892v-3.6A2.294,2.294,0,0,1,2.294,0Z" transform="translate(0 0)"/>
        </g>
        <g id="Grupo_587" data-name="Grupo 587" transform="translate(0 27.174)">
          <g id="Grupo_532" data-name="Grupo 532" transform="translate(0 0)">
            <path id="Trazado_1693" data-name="Trazado 1693" class="cls-9" d="M3.332,0A3.332,3.332,0,1,1,0,3.332,3.332,3.332,0,0,1,3.332,0Z" transform="translate(0 0)"/>
            <path id="Trazado_1692" data-name="Trazado 1692" class="cls-4" d="M1.867,0H36.783a1.867,1.867,0,0,1,1.867,1.867V4.8a1.867,1.867,0,0,1-1.867,1.867H1.867A1.867,1.867,0,0,1,0,4.8V1.867A1.867,1.867,0,0,1,1.867,0Z" transform="translate(10.662 0)"/>
          </g>
          <g id="Grupo_533" data-name="Grupo 533" transform="translate(0 12.662)">
            <path id="Trazado_1694" data-name="Trazado 1694" class="cls-9" d="M3.332,0A3.332,3.332,0,1,1,0,3.332,3.332,3.332,0,0,1,3.332,0Z" transform="translate(0 0)"/>
            <path id="Trazado_1695" data-name="Trazado 1695" class="cls-4" d="M1.867,0H36.783a1.867,1.867,0,0,1,1.867,1.867V4.8a1.867,1.867,0,0,1-1.867,1.867H1.867A1.867,1.867,0,0,1,0,4.8V1.867A1.867,1.867,0,0,1,1.867,0Z" transform="translate(10.662 0)"/>
          </g>
          <g id="Grupo_534" data-name="Grupo 534" transform="translate(0 25.323)">
            <path id="Trazado_1697" data-name="Trazado 1697" class="cls-9" d="M3.332,0A3.332,3.332,0,1,1,0,3.332,3.332,3.332,0,0,1,3.332,0Z" transform="translate(0 0)"/>
            <path id="Trazado_1696" data-name="Trazado 1696" class="cls-4" d="M1.867,0H36.783a1.867,1.867,0,0,1,1.867,1.867V4.8a1.867,1.867,0,0,1-1.867,1.867H1.867A1.867,1.867,0,0,1,0,4.8V1.867A1.867,1.867,0,0,1,1.867,0Z" transform="translate(10.662 0)"/>
          </g>
          <g id="Grupo_535" data-name="Grupo 535" transform="translate(0 37.984)">
            <path id="Trazado_1698" data-name="Trazado 1698" class="cls-9" d="M3.332,0A3.332,3.332,0,1,1,0,3.332,3.332,3.332,0,0,1,3.332,0Z" transform="translate(0 0)"/>
            <path id="Trazado_1699" data-name="Trazado 1699" class="cls-4" d="M1.867,0H36.783a1.867,1.867,0,0,1,1.867,1.867V4.8a1.867,1.867,0,0,1-1.867,1.867H1.867A1.867,1.867,0,0,1,0,4.8V1.867A1.867,1.867,0,0,1,1.867,0Z" transform="translate(10.662 0)"/>
          </g>
        </g>
        <g id="Grupo_585" data-name="Grupo 585" transform="translate(0 163.643)">
          <g id="Grupo_536" data-name="Grupo 536">
            <path id="Trazado_1706" data-name="Trazado 1706" class="cls-10" d="M8.663,0A8.663,8.663,0,1,1,0,8.663,8.663,8.663,0,0,1,8.663,0Z" transform="translate(0)"/>
            <path id="Trazado_1707" data-name="Trazado 1707" class="cls-11" d="M2.666,0A2.666,2.666,0,1,1,0,2.666,2.666,2.666,0,0,1,2.666,0Z" transform="translate(11.995 11.995)"/>
          </g>
          <g id="Grupo_537" data-name="Grupo 537" transform="translate(19.992 3.735)">
            <path id="Trazado_1708" data-name="Trazado 1708" class="cls-1" d="M1.666,0h23.99a1.666,1.666,0,0,1,0,3.332H1.666A1.666,1.666,0,0,1,1.666,0Z" transform="translate(0 0)"/>
            <path id="Trazado_1709" data-name="Trazado 1709" class="cls-1" d="M1.666,0h12a1.666,1.666,0,0,1,0,3.332h-12A1.666,1.666,0,0,1,1.666,0Z" transform="translate(0 5.998)"/>
          </g>
        </g>
      </g>
      <g id="Grupo_608" data-name="Grupo 608" transform="translate(108.79 0.685)">
        <g id="Grupo_589" data-name="Grupo 589" transform="translate(0 0)">
          <path id="Trazado_1689" data-name="Trazado 1689" class="cls-4" d="M2.49,0H36.827a2.49,2.49,0,0,1,2.49,2.49V7.506A2.49,2.49,0,0,1,36.827,10H2.49A2.49,2.49,0,0,1,0,7.506V2.49A2.49,2.49,0,0,1,2.49,0Z" transform="translate(0 0)"/>
          <path id="Trazado_1688" data-name="Trazado 1688" class="cls-4" d="M2.541,0h87.4a2.516,2.516,0,0,1,2.541,2.49V7.506A2.516,2.516,0,0,1,89.936,10H2.541A2.516,2.516,0,0,1,0,7.506V2.49A2.516,2.516,0,0,1,2.541,0Z" transform="translate(0 15.697)"/>
          <path id="Trazado_1687" data-name="Trazado 1687" class="cls-4" d="M2.49,0H36.827a2.49,2.49,0,0,1,2.49,2.49V7.506A2.49,2.49,0,0,1,36.827,10H2.49A2.49,2.49,0,0,1,0,7.506V2.49A2.49,2.49,0,0,1,2.49,0Z" transform="translate(0 31.079)"/>
        </g>
        <g id="Grupo_607" data-name="Grupo 607" transform="translate(0.132 55.662)">
          <g id="Grupo_602" data-name="Grupo 602" transform="translate(0.113 0)">
            <path id="Trazado_1646" data-name="Trazado 1646" class="cls-8" d="M5.083,0A5.083,5.083,0,1,1,0,5.083,5.083,5.083,0,0,1,5.083,0Z" transform="translate(0 0)"/>
            <path id="Trazado_1645" data-name="Trazado 1645" class="cls-4" d="M2.7,0H84.509c1.493,0,2.7.818,2.7,1.828V8.339c0,1.009-1.21,1.828-2.7,1.828H2.7C1.21,10.166,0,9.348,0,8.339V1.828C0,.818,1.21,0,2.7,0Z" transform="translate(15.697 0)"/>
          </g>
          <g id="Grupo_605" data-name="Grupo 605" transform="translate(0 82.404)">
            <path id="Trazado_1737" data-name="Trazado 1737" class="cls-12" d="M5.083,0A5.083,5.083,0,1,1,0,5.083,5.083,5.083,0,0,1,5.083,0Z" transform="translate(0 0)"/>
            <path id="Trazado_1736" data-name="Trazado 1736" class="cls-4" d="M2.7,0H84.509c1.493,0,2.7.818,2.7,1.828V8.339c0,1.009-1.21,1.828-2.7,1.828H2.7C1.21,10.166,0,9.348,0,8.339V1.828C0,.818,1.21,0,2.7,0Z" transform="translate(15.81 0)"/>
          </g>
          <g id="Grupo_606" data-name="Grupo 606" transform="translate(0 100.063)">
            <path id="Trazado_1739" data-name="Trazado 1739" class="cls-13" d="M5.083,0A5.083,5.083,0,1,1,0,5.083,5.083,5.083,0,0,1,5.083,0Z" transform="translate(0 0)"/>
            <path id="Trazado_1738" data-name="Trazado 1738" class="cls-4" d="M2.7,0H84.509c1.493,0,2.7.818,2.7,1.828V8.339c0,1.009-1.21,1.828-2.7,1.828H2.7C1.21,10.166,0,9.348,0,8.339V1.828C0,.818,1.21,0,2.7,0Z" transform="translate(15.81 0)"/>
          </g>
          <g id="Grupo_603" data-name="Grupo 603" transform="translate(0.113 17.921)">
            <path id="Trazado_1686" data-name="Trazado 1686" class="cls-12" d="M5.083,0A5.083,5.083,0,1,1,0,5.083,5.083,5.083,0,0,1,5.083,0Z" transform="translate(0 0)"/>
            <path id="Trazado_1685" data-name="Trazado 1685" class="cls-4" d="M2.7,0H84.509c1.493,0,2.7.818,2.7,1.828V8.339c0,1.009-1.21,1.828-2.7,1.828H2.7C1.21,10.166,0,9.348,0,8.339V1.828C0,.818,1.21,0,2.7,0Z" transform="translate(15.697 0)"/>
          </g>
          <g id="Grupo_604" data-name="Grupo 604" transform="translate(0.113 35.873)">
            <path id="Trazado_1674" data-name="Trazado 1674" class="cls-13" d="M5.083,0A5.083,5.083,0,1,1,0,5.083,5.083,5.083,0,0,1,5.083,0Z" transform="translate(0 0)"/>
            <rect id="Rectángulo_438" data-name="Rectángulo 438" class="cls-9" width="142.473" height="39.123" rx="5" transform="translate(15.697 0)"/>
          </g>
        </g>
      </g>
    </g>
  </g>
  <path id="Exclusión_10" data-name="Exclusión 10" class="cls-7" d="M236.743,326.373H11.691A11.691,11.691,0,0,1,0,314.681V11.691A11.691,11.691,0,0,1,11.691,0H236.743a11.691,11.691,0,0,1,11.69,11.691v302.99a11.691,11.691,0,0,1-11.69,11.691ZM12.181,8.769a3.416,3.416,0,0,0-3.413,3.413V314.73a3.417,3.417,0,0,0,3.413,3.413H236.5a3.417,3.417,0,0,0,3.413-3.413V12.181A3.416,3.416,0,0,0,236.5,8.769Z" transform="translate(326.373 0) rotate(90)"/>
</svg>
