<svg version="1.1" id="Capa_1" xmlns="http://www.w3.org/2000/svg" xmlns:xlink="http://www.w3.org/1999/xlink" x="0px" y="0px" viewBox="0 0 260 300" style="enable-background:new 0 0 260 300;" xml:space="preserve">
	
	<defs>
		<style type="text/css">
			
			.header-box	{
				animation: header-box 8s infinite cubic-bezier(0.68, -0.55, 0.265, 1.55); 
			}
			
			@keyframes header-box {
				0% 	{
					transform: translateY(-20px);
					opacity: 0;
				}
				
				6%	{

					transform: translateY(0px);
					opacity: 1;
				}
			}
			
			
			.main	{
				animation: main 8s infinite cubic-bezier(0.68, -0.55, 0.265, 1.55); 
			}
			
			@keyframes main {
				0%, 6% 	{
					transform: translateX(-40px);
					opacity: 0;
				}
				
				12%	{

					transform: translateX(0px);
					opacity: 1;
				}
			}
			
			
			.square	{
				animation: square 8s infinite cubic-bezier(0.68, -0.55, 0.265, 1.55); 
			}
			
			@keyframes square {
				0%, 12% 	{
					transform: translateY(-20px);
					opacity: 0;
				}
				
				18%	{

					transform: translateY(0px);
					opacity: 1;
				}
			}
			
			.menu-one	{
				animation: menu-one 8s infinite cubic-bezier(0.68, -0.55, 0.265, 1.55); 
			}
			
			@keyframes menu-one {
				0%, 18% 	{
					transform: translate(-20px);
					opacity: 0;
				}
				
				22%	{

					transform: translate(0px);
					opacity: 1;
				}
			}
			
			.menu-two	{
				animation: menu-two 8s infinite cubic-bezier(0.68, -0.55, 0.265, 1.55); 
			}
			
			@keyframes menu-two {
				0%, 22% 	{
					transform: translate(-20px);
					opacity: 0;
				}
				
				26%	{

					transform: translate(0px);
					opacity: 1;
				}
			}
			
			.menu-three	{
				animation: menu-three 8s infinite cubic-bezier(0.68, -0.55, 0.265, 1.55); 
			}
			
			@keyframes menu-three {
				0%, 26% 	{
					transform: translate(-10px);
					opacity: 0;
				}
				
				30%	{

					transform: translate(0px);
					opacity: 1;
				}
			}

			.st1{fill:#22272D;}
			.st2{fill:#C1C1C1;}

		</style>
	</defs>

<g>
	<g class="content-layout">
		<path class="st1" d="M25,298.5c-12.958,0-23.5-10.542-23.5-23.5V25C1.5,12.042,12.042,1.5,25,1.5h210
			c12.958,0,23.5,10.542,23.5,23.5v250c0,12.958-10.542,23.5-23.5,23.5H25z"/>
		<path class="st2" d="M235,3c12.131,0,22,9.869,22,22v250c0,12.131-9.869,22-22,22H25c-12.131,0-22-9.869-22-22V25
			C3,12.869,12.869,3,25,3H235 M235,0H25C11.25,0,0,11.25,0,25v250c0,13.75,11.25,25,25,25h210c13.75,0,25-11.25,25-25V25
			C260,11.25,248.75,0,235,0L235,0z"/>
	</g>
	<g>
		<g class="header-box">
			<path class="st1" d="M35,45.324c-4.687,0-8.5-3.813-8.5-8.5v-2.667c0-4.687,3.813-8.5,8.5-8.5h189.999c4.687,0,8.5,3.813,8.5,8.5
				v2.667c0,4.687-3.813,8.5-8.5,8.5H35z"/>
			<path class="st2" d="M224.999,27.157c3.859,0,7,3.14,7,7v2.667c0,3.86-3.141,7-7,7H35c-3.86,0-7-3.14-7-7v-2.667
				c0-3.86,3.14-7,7-7H224.999 M224.999,24.157H35c-5.5,0-10,4.5-10,10v2.667c0,5.5,4.5,10,10,10h189.999c5.5,0,10-4.5,10-10v-2.667
				C234.999,28.657,230.499,24.157,224.999,24.157L224.999,24.157z"/>
		</g>
		<g class="main">
			<path class="st1" d="M35,179.99c-4.687,0-8.5-3.813-8.5-8.5V66.476c0-4.687,3.813-8.5,8.5-8.5h189.999c4.687,0,8.5,3.813,8.5,8.5
				V171.49c0,4.687-3.813,8.5-8.5,8.5H35z"/>
			<path class="st2" d="M224.999,59.476c3.859,0,7,3.14,7,7V171.49c0,3.859-3.141,7-7,7H35c-3.86,0-7-3.141-7-7V66.476
				c0-3.86,3.14-7,7-7H224.999 M224.999,56.476H35c-5.5,0-10,4.5-10,10V171.49c0,5.5,4.5,10,10,10h189.999c5.5,0,10-4.5,10-10
				V66.476C234.999,60.976,230.499,56.476,224.999,56.476L224.999,56.476z"/>
		</g>
		<g class="square">
			<path class="st1" d="M35,274.342c-4.687,0-8.5-3.813-8.5-8.5v-63.685c0-4.687,3.813-8.5,8.5-8.5h60.668
				c4.687,0,8.5,3.813,8.5,8.5v63.685c0,4.687-3.813,8.5-8.5,8.5H35z"/>
			<path class="st2" d="M95.668,195.157c3.86,0,7,3.141,7,7v63.685c0,3.859-3.14,7-7,7H35c-3.86,0-7-3.141-7-7v-63.685
				c0-3.859,3.14-7,7-7H95.668 M95.668,192.157H35c-5.5,0-10,4.5-10,10v63.685c0,5.5,4.5,10,10,10h60.668c5.5,0,10-4.5,10-10
				v-63.685C105.668,196.657,101.168,192.157,95.668,192.157L95.668,192.157z"/>
		</g>
		<g class="menu-one">
			<path class="st1" d="M126.165,213.324c-4.687,0-8.5-3.813-8.5-8.5v-2.667c0-4.687,3.813-8.5,8.5-8.5h98.834
				c4.687,0,8.5,3.813,8.5,8.5v2.667c0,4.687-3.813,8.5-8.5,8.5H126.165z"/>
			<path class="st2" d="M224.999,195.157c3.859,0,7,3.141,7,7v2.667c0,3.859-3.141,7-7,7h-98.834c-3.86,0-7-3.141-7-7v-2.667
				c0-3.859,3.14-7,7-7H224.999 M224.999,192.157h-98.834c-5.5,0-10,4.5-10,10v2.667c0,5.5,4.5,10,10,10h98.834c5.5,0,10-4.5,10-10
				v-2.667C234.999,196.657,230.499,192.157,224.999,192.157L224.999,192.157z"/>
		</g>
		<g class="menu-two">
			<path class="st1" d="M126.165,244.342c-4.687,0-8.5-3.813-8.5-8.5v-2.667c0-4.687,3.813-8.5,8.5-8.5h98.834
				c4.687,0,8.5,3.813,8.5,8.5v2.667c0,4.687-3.813,8.5-8.5,8.5H126.165z"/>
			<path class="st2" d="M224.999,226.175c3.859,0,7,3.141,7,7v2.667c0,3.859-3.141,7-7,7h-98.834c-3.86,0-7-3.141-7-7v-2.667
				c0-3.859,3.14-7,7-7H224.999 M224.999,223.175h-98.834c-5.5,0-10,4.5-10,10v2.667c0,5.5,4.5,10,10,10h98.834c5.5,0,10-4.5,10-10
				v-2.667C234.999,227.675,230.499,223.175,224.999,223.175L224.999,223.175z"/>
		</g>
		<g class="menu-three">
			<path class="st1" d="M126.165,274.342c-4.687,0-8.5-3.813-8.5-8.5v-2.667c0-4.687,3.813-8.5,8.5-8.5h98.834
				c4.687,0,8.5,3.813,8.5,8.5v2.667c0,4.687-3.813,8.5-8.5,8.5H126.165z"/>
			<path class="st2" d="M224.999,256.175c3.859,0,7,3.141,7,7v2.667c0,3.859-3.141,7-7,7h-98.834c-3.86,0-7-3.141-7-7v-2.667
				c0-3.859,3.14-7,7-7H224.999 M224.999,253.175h-98.834c-5.5,0-10,4.5-10,10v2.667c0,5.5,4.5,10,10,10h98.834c5.5,0,10-4.5,10-10
				v-2.667C234.999,257.675,230.499,253.175,224.999,253.175L224.999,253.175z"/>
		</g>
		
	</g>
</g>
</svg>
