<svg id="Grupo_373" data-name="Grupo 373" xmlns="http://www.w3.org/2000/svg" viewBox="0 0 36.383 36.68">
  <path id="Trazado_239" data-name="Trazado 239" d="M18.992.021A18.2,18.2,0,0,0,3.67,26.453L1.739,35.828a.708.708,0,0,0,.857.832l9.187-2.176A18.193,18.193,0,1,0,18.992.021ZM29.954,28.264A14.253,14.253,0,0,1,13.542,30.95l-1.279-.637L6.63,31.647l1.186-5.755-.63-1.234A14.257,14.257,0,0,1,9.81,8.12,14.244,14.244,0,1,1,29.954,28.264Z" transform="translate(-1.69 0)" fill="#8b8b8b"/>
  <path id="Trazado_240" data-name="Trazado 240" d="M122.575,120.131l-3.524-1.012a1.313,1.313,0,0,0-1.3.342l-.862.878a1.284,1.284,0,0,1-1.4.295,18.811,18.811,0,0,1-6.069-5.352,1.284,1.284,0,0,1,.1-1.423l.752-.973a1.313,1.313,0,0,0,.162-1.334l-1.482-3.353a1.314,1.314,0,0,0-2.052-.47,5.927,5.927,0,0,0-2.292,3.5c-.25,2.469.809,5.581,4.813,9.318,4.626,4.317,8.33,4.888,10.741,4.3a5.926,5.926,0,0,0,3.151-2.747A1.314,1.314,0,0,0,122.575,120.131Z" transform="translate(-95.555 -97.994)" fill="#8b8b8b"/>
</svg>
